<?xml version="1.0" standalone="no"?>
<!DOCTYPE svg PUBLIC "-//W3C//DTD SVG 1.1//EN" "http://www.w3.org/Graphics/SVG/1.1/DTD/svg11.dtd" >
<svg xmlns="http://www.w3.org/2000/svg">
<metadata></metadata>
<defs>
<font id="LetterGothicStdRegular" horiz-adv-x="1228" >
<font-face units-per-em="2048" ascent="1520" descent="-528" />
<missing-glyph horiz-adv-x="500" />
<glyph horiz-adv-x="0" />
<glyph horiz-adv-x="2048" />
<glyph unicode=" " />
<glyph unicode="!" d="M471 109q0 57 40 98t97 41t98.5 -41t41.5 -98t-41.5 -97.5t-98.5 -40.5t-97 40.5t-40 97.5zM543 1475h143l-27 -1010h-81z" />
<glyph unicode="&#x22;" d="M356 1247v228h193v-228l-55 -276h-82zM682 1247v228h192v-228l-55 -276h-82z" />
<glyph unicode="#" d="M63 489l17 91h274l58 321h-275l17 90h274l119 658h90l-332 -1846h-92l125 686h-275zM582 -197l338 1846h90l-119 -658h276l-18 -90h-275l-57 -321h275l-17 -91h-274l-127 -686h-92z" />
<glyph unicode="$" d="M238 276l59 72q136 -125 262 -135v532q-122 39 -203.5 123t-81.5 205q0 119 83.5 201t201.5 96v150h96v-150q158 -15 295 -129l-57 -76q-122 113 -238 123v-473q70 -24 123 -54t96.5 -73t66 -102.5t22.5 -134.5q0 -139 -84 -223.5t-224 -96.5v-194h-96v194 q-176 3 -321 145zM371 1067q0 -77 56 -138t132 -91v446q-79 -12 -133.5 -72.5t-54.5 -144.5zM655 213q90 4 150.5 72t60.5 161q0 99 -57 169.5t-154 109.5v-512z" />
<glyph unicode="%" d="M176 1133q0 91 31.5 173.5t100 139.5t161.5 57q100 0 149.5 -56.5t49.5 -156.5q0 -165 -88.5 -270t-206.5 -105q-100 0 -148.5 58t-48.5 160zM195 0l753 1503h86l-753 -1503h-86zM266 1116q0 -139 111 -139q51 0 92 35t63.5 87.5t34 106.5t11.5 101q0 58 -26 96.5 t-81 38.5q-53 0 -94.5 -33.5t-64.5 -85.5t-34.5 -105.5t-11.5 -101.5zM561 195q0 91 31.5 173.5t100 139.5t161.5 57q100 0 149.5 -56.5t49.5 -156.5q0 -165 -88.5 -270t-206.5 -105q-100 0 -148.5 58t-48.5 160zM651 178q0 -139 111 -139q51 0 92 35t63.5 87.5t34 106.5 t11.5 101q0 58 -26 96.5t-81 38.5q-53 0 -94.5 -33.5t-64.5 -85.5t-34.5 -105.5t-11.5 -101.5z" />
<glyph unicode="&#x26;" d="M176 289q0 72 18 137.5t56 129t72.5 110t89.5 114.5q16 19 24 29q-47 76 -71 121t-48 116.5t-24 135.5q0 62 15 117.5t45 102t81.5 74t118.5 27.5q98 0 163.5 -80t65.5 -188q0 -48 -12 -94.5t-28.5 -82.5t-47 -80.5t-53.5 -73.5t-62 -75q-15 -17 -22 -26l289 -471 q16 55 24.5 128t9.5 123t1 144h102q-5 -160 -21 -273t-55 -208l176 -209l-67 -70l-160 191q-134 -187 -346 -187q-148 0 -241 86t-93 232zM279 295q0 -108 60.5 -175t168.5 -67q97 0 174 46t125 130l-320 488q-102 -130 -136 -187q-72 -122 -72 -235zM395 1204 q0 -90 25.5 -159.5t83.5 -165.5q21 32 47.5 71.5t38.5 59t29 44.5t23 37.5t15.5 27t11.5 25.5t6 20.5t4 23.5t0.5 24t0.5 31q0 67 -37 122.5t-102 55.5q-39 0 -68.5 -21t-45.5 -54.5t-24 -69.5t-8 -72z" />
<glyph unicode="'" d="M518 1247v228h193v-228l-56 -276h-82z" />
<glyph unicode="(" d="M385 688q0 250 95.5 476t283.5 356l45 -62q-171 -129 -249.5 -331t-78.5 -439q0 -236 78.5 -438.5t249.5 -331.5l-45 -59q-188 130 -283.5 355.5t-95.5 473.5z" />
<glyph unicode=")" d="M420 -82q171 129 249.5 331.5t78.5 438.5q0 113 -17.5 218.5t-55 207t-102.5 190.5t-153 154l45 62q188 -130 283.5 -356t95.5 -476q0 -248 -95.5 -473.5t-283.5 -355.5z" />
<glyph unicode="*" d="M158 1100l24 86l387 -115v404h88v-404l387 115l27 -86l-399 -115l254 -321l-68 -54l-244 310l-237 -310l-70 54l248 321z" />
<glyph unicode="+" d="M70 692v90h499v500h90v-500h500v-90h-500v-499h-90v499h-499z" />
<glyph unicode="," d="M498 100q0 58 39.5 95.5t95.5 37.5q64 0 103.5 -50t39.5 -117q0 -103 -83 -182.5t-191 -110.5v86q53 15 97 46t63 75q-6 0 -21 -5q-3 0 -9 -1t-9 -1q-57 0 -91 35t-34 92z" />
<glyph unicode="-" d="M373 694v82h483v-82h-483z" />
<glyph unicode="." d="M477 109q0 57 40 98t97 41t98.5 -41t41.5 -98t-41.5 -97.5t-98.5 -40.5t-97 40.5t-40 97.5z" />
<glyph unicode="/" d="M264 -55l606 1585h95l-607 -1585h-94z" />
<glyph unicode="0" d="M209 737q0 324 49 473q42 133 132.5 213t223.5 80q128 0 217.5 -75.5t133.5 -200.5q55 -159 55 -490q0 -326 -49 -473q-42 -132 -133.5 -212.5t-223.5 -80.5q-127 0 -216.5 76t-133.5 201q-55 156 -55 489zM305 737q0 -290 39 -424q30 -111 97.5 -186.5t172.5 -75.5 q58 0 106.5 24.5t81.5 67.5t55 91t36 104q31 132 31 399q0 290 -39 422q-30 112 -98 188t-173 76q-58 0 -106 -24.5t-81 -67t-55 -90.5t-36 -104q-31 -134 -31 -400z" />
<glyph unicode="1" d="M276 1305v90l392 125v-1438h272v-82h-649v82h280v1315z" />
<glyph unicode="2" d="M225 0q0 128 12.5 210t53.5 165t108.5 157.5t186.5 178.5q8 7 40.5 35t44 38.5t42 39t44 43t38.5 43t37.5 47.5t29.5 47.5t25 52t14 52t6 56.5q0 116 -69 186t-185 70q-133 0 -210 -89t-87 -226h-96q14 178 116.5 287.5t278.5 109.5q160 0 254.5 -92.5t94.5 -251.5 q0 -58 -17.5 -113.5t-45 -99.5t-68 -89.5t-79 -81.5t-84.5 -77q-20 -17 -30 -26q-116 -104 -185 -177.5t-107.5 -142.5t-51 -127.5t-14.5 -142.5h688v-82h-785z" />
<glyph unicode="3" d="M172 231l86 52q108 -224 330 -224q155 0 249.5 88.5t94.5 241.5q0 93 -31 164.5t-85.5 115t-125.5 65.5t-155 22v82q136 0 232.5 88t96.5 223q0 113 -83 192.5t-199 79.5q-99 0 -179.5 -55.5t-128.5 -146.5l-81 45q62 112 166 175.5t231 63.5q155 0 263 -107.5 t108 -260.5q0 -111 -65 -197.5t-171 -132.5q141 -45 222 -149t81 -248q0 -189 -122.5 -310t-313.5 -121q-141 0 -240 63.5t-180 190.5z" />
<glyph unicode="4" d="M143 395v72l545 1036h152v-1026h209v-82h-209v-395h-97v395h-600zM248 477h495v959h-4z" />
<glyph unicode="5" d="M236 199l71 55q48 -85 130 -140t175 -55q133 0 218 111.5t85 269.5q0 85 -19.5 153t-50 110.5t-70 70.5t-76.5 39.5t-72 11.5q-166 0 -269 -168l-114 23l59 795h617v-82h-533l-49 -639q114 153 287 153q78 0 147 -30t123 -86t85.5 -144.5t31.5 -197.5q0 -92 -28 -176.5 t-78.5 -150.5t-130 -105.5t-175.5 -39.5q-211 0 -364 222z" />
<glyph unicode="6" d="M215 623q0 175 30.5 322t82.5 248.5t121.5 172.5t147 104t159.5 33q125 0 243 -76l-47 -81q-103 75 -200 75q-76 0 -143 -36t-115 -96t-85.5 -136t-59.5 -158t-32 -159t-6 -142q134 228 351 228q89 0 160 -39.5t114 -104.5t65.5 -144t22.5 -163q0 -97 -26 -184.5 t-75.5 -157.5t-130.5 -111t-184 -41q-62 0 -116.5 18.5t-106.5 65t-88.5 118.5t-59 185.5t-22.5 258.5zM324 432q0 -53 10 -105t33 -100.5t55.5 -85.5t81 -59.5t106.5 -22.5q83 0 146.5 36t99.5 96t54 131t18 149q0 71 -16 134.5t-48.5 117t-89.5 85.5t-131 32 q-52 0 -106.5 -26.5t-102.5 -75.5t-79 -129.5t-31 -176.5z" />
<glyph unicode="7" d="M211 1393v82h774l-567 -1475h-107l551 1393h-651z" />
<glyph unicode="8" d="M164 389q0 139 64 237t194 144q-97 42 -154 139.5t-57 206.5q0 176 113 281.5t290 105.5q180 0 289 -104.5t109 -282.5q0 -111 -54.5 -208t-150.5 -138q128 -45 193 -143.5t65 -237.5q0 -193 -117 -302.5t-334 -109.5q-222 0 -336 110t-114 302zM260 389 q0 -156 97.5 -243t256.5 -87t257 87t98 243t-98.5 247t-256.5 91t-256 -91t-98 -247zM307 1102q0 -133 85.5 -213t219.5 -80q139 0 221 83t82 224t-81.5 223t-221.5 82q-145 0 -225 -84.5t-80 -234.5z" />
<glyph unicode="9" d="M203 1001q0 78 16 150.5t50 136.5t82.5 112t118 75.5t151.5 27.5q215 0 321 -227q72 -158 72 -424q0 -317 -101 -543q-65 -145 -178.5 -238.5t-261.5 -93.5q-134 0 -246 70l47 82q97 -70 203 -70q90 0 167 50.5t128 130t86.5 177t49.5 191.5t10 172q-137 -227 -351 -227 q-89 0 -160 39t-114.5 104t-66.5 143t-23 162zM299 1004q0 -71 16.5 -134.5t49 -117t90 -85.5t131.5 -32q65 0 126.5 37t106.5 94q86 115 86 276q0 67 -17.5 132t-51 121.5t-91 91t-129.5 34.5q-67 0 -121.5 -24.5t-90 -65t-60 -95t-35 -112.5t-10.5 -120z" />
<glyph unicode=":" d="M475 109q0 57 40 98t97 41t98.5 -41t41.5 -98t-41.5 -97.5t-98.5 -40.5t-97 40.5t-40 97.5zM475 827q0 57 40 98.5t97 41.5t98.5 -41.5t41.5 -98.5t-41.5 -97t-98.5 -40t-97 40t-40 97z" />
<glyph unicode=";" d="M498 100q0 58 39.5 95.5t95.5 37.5q64 0 103.5 -50t39.5 -117q0 -103 -83 -182.5t-191 -110.5v86q53 15 97 46t63 75q-6 0 -21 -5q-3 0 -9 -1t-9 -1q-57 0 -91 35t-34 92zM498 827q0 57 40 98.5t97 41.5t98 -41.5t41 -98.5t-41 -97t-98 -40t-97 40t-40 97z" />
<glyph unicode="&#x3c;" d="M201 737l776 738l51 -66l-696 -672l696 -671l-51 -66z" />
<glyph unicode="=" d="M70 555v90h1089v-90h-1089zM70 829v91h1089v-91h-1089z" />
<glyph unicode="&#x3e;" d="M201 66l696 671l-696 672l51 66l776 -738l-776 -737z" />
<glyph unicode="?" d="M258 1190q12 147 104 230t240 83q162 0 254 -95t92 -257q0 -58 -10.5 -101.5t-35.5 -80.5t-53.5 -64.5t-78.5 -66.5q-24 -19 -39.5 -31.5t-30 -28.5t-21.5 -23.5t-13.5 -25.5t-9 -25.5t-4 -32.5t-1.5 -37.5v-49.5v-125h-96v200q0 74 16 109q23 52 156 156 q66 53 95.5 103.5t29.5 129.5q0 119 -67.5 191.5t-184.5 72.5q-106 0 -171.5 -63.5t-68.5 -167.5h-102zM481 109q0 57 40 98t97 41t98.5 -41t41.5 -98t-41.5 -97.5t-98.5 -40.5t-97 40.5t-40 97.5z" />
<glyph unicode="@" d="M10 610q0 171 46.5 331.5t128.5 285.5t205 200.5t267 75.5q112 0 213.5 -43.5t179.5 -121.5t124.5 -195.5t46.5 -257.5q0 -60 -10.5 -124.5t-34.5 -132t-59.5 -120.5t-90.5 -87t-121 -34q-63 0 -113 31.5t-67 89.5q-39 -57 -94.5 -92t-120.5 -35q-78 0 -125 52.5 t-47 133.5q0 90 33 192t86 167q97 118 348 118h65l-53 -319q-11 -65 -11 -113.5t8 -75t24 -42.5t32 -20.5t37 -4.5q58 0 103 43t68.5 108.5t34.5 129t11 118.5q0 115 -30 210.5t-78 157.5t-109 105t-121.5 61.5t-117.5 18.5q-114 0 -209.5 -52t-159.5 -135.5t-108.5 -190.5 t-64.5 -215.5t-20 -213.5q0 -121 29 -219t76 -160.5t110 -104.5t127.5 -59.5t131.5 -17.5q120 0 235 45.5t240 126.5l35 -92q-119 -75 -254 -118.5t-267 -43.5q-81 0 -158.5 22t-150.5 72t-128 122.5t-88.5 181.5t-33.5 241zM434 580q0 -44 23 -80.5t63 -36.5 q31 0 60.5 15.5t61.5 53t58.5 112.5t42.5 181l21 138q-49 -3 -106.5 -20.5t-90.5 -43.5q-53 -41 -93 -143t-40 -176z" />
<glyph unicode="A" d="M125 0l491 1534l494 -1534h-109l-133 449h-501l-136 -449h-106zM387 530h461l-232 742z" />
<glyph unicode="B" d="M244 0v1475h360q164 0 264.5 -97t100.5 -264q0 -230 -236 -334q144 -42 222.5 -142.5t78.5 -248.5q0 -165 -99.5 -277t-268.5 -112h-422zM340 82h309q48 0 96.5 18t93 52.5t72 95t27.5 137.5q0 141 -93.5 241.5t-250.5 100.5h-254v-645zM340 809h149q185 0 284 83.5 t99 227.5q0 63 -14.5 110t-49 85t-97 58t-152.5 20h-219v-584z" />
<glyph unicode="C" d="M197 717q0 75 4 142.5t16.5 149.5t33.5 149.5t57 133t84.5 111t119 73t156.5 27.5q136 0 232 -86.5t108 -220.5h-97q-4 96 -74.5 160.5t-168.5 64.5q-71 0 -128 -26t-95 -67t-66 -102t-43 -120t-23.5 -133t-11 -128t-2.5 -118q0 -62 2 -114.5t10.5 -125t23 -129 t41.5 -116t63.5 -99t91.5 -65t124 -25.5q115 0 193.5 76t83.5 190h96q-15 -163 -116 -255.5t-265 -92.5q-81 0 -147.5 26t-112 69t-80.5 105t-55.5 126.5t-33 141.5t-17 142t-4.5 136z" />
<glyph unicode="D" d="M252 0v1475h369q122 0 212.5 -58t139.5 -151q90 -165 90 -529q0 -131 -14 -239.5t-36 -176t-38 -101.5t-31 -56q-116 -164 -352 -164h-340zM348 82h182q69 0 117.5 6.5t99 25t88.5 57.5t64 99q62 142 62 467q0 345 -68 482q-28 56 -66 92.5t-87.5 53.5t-96 22.5 t-113.5 5.5h-182v-1311z" />
<glyph unicode="E" d="M309 0v1475h721v-82h-624v-594h448v-82h-448v-635h638v-82h-735z" />
<glyph unicode="F" d="M328 0v1475h755v-82h-659v-582h496v-82h-496v-729h-96z" />
<glyph unicode="G" d="M205 690q0 191 22.5 335t60.5 234t95.5 145.5t121 77t142.5 21.5q163 0 253 -99.5t104 -266.5h-103v16q0 106 -62 184q-67 84 -182 84q-55 0 -102 -16.5t-80.5 -42.5t-60 -67.5t-44 -82t-30 -96.5t-19 -100.5t-10 -104.5t-4 -97t-0.5 -89q0 -63 1.5 -109.5t8 -121.5 t19 -129.5t37 -117t58 -102t86 -66t118.5 -26.5q50 0 95.5 13.5t90.5 46.5t78 83.5t53.5 131t20.5 182.5v119h-355v82h451v-740h-96v234h-4q-33 -106 -129 -170t-213 -64q-73 0 -133.5 20t-115.5 70.5t-92 130.5t-59 206.5t-22 291.5z" />
<glyph unicode="H" d="M225 0v1475h97v-668h583v668h96v-1475h-96v725h-583v-725h-97z" />
<glyph unicode="I" d="M360 0v82h205v1311h-205v82h506v-82h-204v-1311h204v-82h-506z" />
<glyph unicode="J" d="M174 444v158h96v-211q0 -175 66 -257q65 -81 202 -81h3q152 3 227.5 92t75.5 246v1002h-279v82h375v-1008q0 -263 -96.5 -379.5t-300.5 -116.5q-185 0 -277 110.5t-92 362.5z" />
<glyph unicode="K" d="M287 0v1475h96v-676q41 1 84 20.5t78 47.5t73 70t62 74.5t53 73.5q131 192 209 396l100 -54q-50 -88 -176 -297q-77 -129 -160 -224t-188 -156l631 -750h-133l-584 717h-49v-717h-96z" />
<glyph unicode="L" d="M346 0v1475h96v-1393h648v-82h-744z" />
<glyph unicode="M" d="M172 0v1475h107l335 -811l336 811h107v-1475h-96v1280h-5l-342 -819l-342 819l-4 -4v-1276h-96z" />
<glyph unicode="N" d="M256 0v1475h139l502 -1264l4 4v1260h96v-1489h-100l-541 1355l-4 -4v-1337h-96z" />
<glyph unicode="O" d="M180 737q0 82 3.5 149t14.5 149t29.5 145.5t51.5 126t78 104t111.5 67t149.5 25.5q89 0 160 -31t115.5 -75t76.5 -118t47 -132.5t23.5 -148.5t9.5 -136t1 -123v-2q0 -183 -23 -320t-61 -221t-95 -135.5t-117.5 -70.5t-136.5 -19q-53 0 -98 9t-90.5 32.5t-82 61t-68.5 97 t-53.5 138.5t-33.5 187.5t-12 240.5zM283 737q0 -161 17.5 -282.5t47 -197t73.5 -122t91 -64.5t106 -18q77 0 135 33t103 109.5t68.5 212t23.5 329.5q0 161 -16.5 281.5t-45 196.5t-71.5 123t-90 65t-107 18q-110 0 -182 -64t-112.5 -217.5t-40.5 -402.5z" />
<glyph unicode="P" d="M297 0v1475h332q89 0 159 -24.5t115.5 -66t75.5 -99t42.5 -119.5t12.5 -132q0 -213 -121 -323.5t-333 -110.5h-187v-600h-96zM393 682h172q187 0 277 93t90 257q0 99 -24.5 172t-68 112.5t-94 58t-110.5 18.5h-242v-711z" />
<glyph unicode="Q" d="M174 737q0 208 30.5 357.5t89 238t137 129.5t181.5 41q78 0 141.5 -22t120 -76.5t95 -140.5t60.5 -219.5t22 -307.5q0 -97 -4.5 -170t-19 -168.5t-49.5 -174.5t-89 -136l166 -215h-121l-113 160q-92 -62 -209 -62q-81 0 -146.5 24.5t-120.5 80.5t-92.5 143.5t-58 218 t-20.5 299.5zM276 737q0 -66 1 -106.5t7 -120.5t18 -133t37 -120t59.5 -107t89.5 -68.5t124 -28.5q55 0 100.5 18.5t78 46.5t58.5 73t42 86t28 99.5t17.5 98.5t8.5 97.5t3 83v67.5v14q0 160 -17.5 281.5t-47 197t-73.5 122.5t-91.5 65t-106.5 18q-69 0 -124 -27.5t-89.5 -66 t-59.5 -104t-37 -117.5t-18 -133t-7 -123t-1 -113z" />
<glyph unicode="R" d="M295 0v1475h350q183 0 287 -111.5t104 -294.5q0 -143 -76 -255.5t-208 -154.5l397 -659h-121l-366 637h-271v-637h-96zM391 719h240q52 0 103 20.5t97 61t74.5 112.5t28.5 164q0 90 -28 159t-95 113t-166 44h-254v-674z" />
<glyph unicode="S" d="M203 188l73 60q61 -88 150.5 -141.5t191.5 -53.5q131 0 223.5 86.5t92.5 216.5q0 48 -4 76t-19 61.5t-47 63.5t-84 67.5t-135 86.5l-137 82q-60 36 -102 68t-82.5 75.5t-61 98t-20.5 118.5q0 161 108 255.5t273 94.5q99 0 196 -46t178 -120l-57 -71q-83 72 -160 113.5 t-164 41.5q-115 0 -193.5 -71.5t-78.5 -186.5q0 -88 49 -153.5t182 -147.5l121 -74q98 -59 153.5 -98.5t102.5 -88.5t65.5 -101t18.5 -119q0 -189 -114 -299.5t-304 -110.5q-248 0 -415 217z" />
<glyph unicode="T" d="M141 1393v82h946v-82h-425v-1393h-97v1393h-424z" />
<glyph unicode="U" d="M225 356v1119h97v-1047q0 -102 22.5 -176.5t64 -117t92 -62t113.5 -19.5q133 0 211 84.5t78 257.5v1080h96v-1096q0 -104 -36.5 -185.5t-95 -128.5t-123.5 -70.5t-130 -23.5q-155 0 -272 112.5t-117 272.5z" />
<glyph unicode="V" d="M203 1475h112l297 -1407h4l287 1407h111l-322 -1489h-155z" />
<glyph unicode="W" d="M150 1475h112l86 -1317h4l254 819l256 -819h4l86 1317h113l-115 -1489h-129l-215 741l-213 -741h-129z" />
<glyph unicode="X" d="M213 0l356 745l-346 730h115l276 -637l277 637h115l-342 -732l352 -743h-115l-289 653l-284 -653h-115z" />
<glyph unicode="Y" d="M158 1475h108l309 -738l312 738h108l-370 -850v-625h-97v625z" />
<glyph unicode="Z" d="M231 0v82l641 1311h-618v82h727v-82l-635 -1311h684v-82h-799z" />
<glyph unicode="[" d="M369 -180v1700h549v-82h-453v-1536h453v-82h-549z" />
<glyph unicode="\" d="M264 1530h94l607 -1585h-95z" />
<glyph unicode="]" d="M315 -98h453v1536h-453v82h549v-1700h-549v82z" />
<glyph unicode="^" d="M227 731l336 662h107l331 -662h-102l-281 563l-286 -563h-105z" />
<glyph unicode="_" d="M0 -154h1229v-102h-1229v102z" />
<glyph unicode="`" d="M369 1417l75 86l326 -266l-45 -61z" />
<glyph unicode="a" d="M227 322q0 105 37 191.5t112.5 140t176.5 53.5q116 0 264 -72v39q0 181 -43 261q-48 89 -178 89q-64 0 -122.5 -18t-137.5 -54l-23 88q168 66 289 66q150 0 232 -100q79 -95 79 -264v-17l-12 -442v-9q0 -118 53 -284l-88 -13q-32 95 -41 185q-64 -92 -131.5 -138.5 t-165.5 -46.5q-142 0 -221.5 100t-79.5 245zM324 313q0 -100 54 -177t150 -77q48 0 90.5 17.5t77.5 51.5t61 68.5t54 82.5v280q-128 66 -236 66q-126 0 -188.5 -90t-62.5 -222z" />
<glyph unicode="b" d="M209 -10q49 160 49 391v1139h96v-506q115 92 267 92q40 0 84 -11.5t93 -36t92.5 -68.5t79 -103t56.5 -146.5t21 -191.5q0 -122 -26.5 -221t-69 -163t-99 -107.5t-112.5 -62t-113 -18.5q-95 0 -170.5 47t-118.5 132l-39 -179zM354 276q46 -101 109 -159t162 -58 q40 0 81.5 13.5t86 49t79 88t56.5 139t22 194.5q0 82 -13.5 151.5t-35 118t-52 86.5t-62.5 61t-67.5 38t-65 20.5t-58.5 5.5q-120 0 -242 -106v-642z" />
<glyph unicode="c" d="M225 530q0 106 18.5 194.5t52 150t76 107.5t93.5 72.5t101.5 39t103.5 12.5q227 0 372 -219l-86 -58q-45 90 -118 142.5t-168 52.5q-45 0 -88.5 -11.5t-92 -44t-84.5 -83.5t-59.5 -138t-23.5 -200q0 -108 22 -193.5t57 -139.5t82.5 -90t95 -50.5t97.5 -14.5 q152 0 295 170l65 -69q-83 -90 -166.5 -136.5t-191.5 -46.5q-61 0 -120.5 15.5t-121 55t-107.5 100t-75 159t-29 223.5z" />
<glyph unicode="d" d="M178 549q0 104 21 191.5t56.5 146.5t79 103t92.5 68.5t93 36t84 11.5q151 0 266 -92v506h97v-1139q0 -231 49 -391l-90 -13l-39 179q-43 -85 -118.5 -132t-170.5 -47q-57 0 -113.5 18.5t-112.5 62t-98.5 107.5t-69 163t-26.5 221zM274 543q0 -107 22.5 -193.5t57 -139.5 t79 -88t86 -49t81.5 -14q97 0 165 60.5t105 156.5v642q-122 106 -241 106q-42 0 -85 -11.5t-93 -44.5t-88 -84t-63.5 -139.5t-25.5 -201.5z" />
<glyph unicode="e" d="M199 537q0 85 15 164.5t48.5 154t83.5 129.5t125.5 88t167.5 33q58 0 111.5 -16.5t106.5 -58.5t92 -106t63 -166.5t24 -232.5h-741q5 -111 27 -194.5t53 -134.5t75.5 -83t89 -43.5t97.5 -11.5q163 0 342 107l41 -90q-225 -99 -387 -99q-92 0 -166.5 32t-123.5 86t-82 127 t-47.5 151.5t-14.5 163.5zM295 608h645q1 12 1 24q0 44 -9 90q-11 58 -37 112.5t-63 96.5t-90 67.5t-115 25.5q-100 0 -179.5 -65t-117.5 -159q-35 -88 -35 -178v-14z" />
<glyph unicode="f" d="M219 928v82h279v123q0 100 26.5 174.5t72.5 115.5t99.5 60.5t114.5 19.5q109 0 266 -67v-103q-25 11 -69 32t-66 30t-55.5 17.5t-65.5 8.5q-107 0 -167 -57.5t-60 -163.5v-190h358v-82h-358v-928h-96v928h-279z" />
<glyph unicode="g" d="M205 580q0 78 12.5 151t42.5 142t74.5 120t113.5 82t154 31q83 0 148.5 -31t146.5 -94l29 125h98q-23 -86 -34 -197t-12 -174t-1 -200v-451q0 -92 -24.5 -167t-63.5 -123t-91 -80.5t-104 -46t-104 -13.5q-82 0 -169.5 41.5t-146.5 103.5l68 60q47 -57 119 -90t147 -33 q49 0 95 19t88.5 58.5t68 112.5t25.5 170v133q-56 -59 -141 -96t-164 -37q-75 0 -138 29t-106 76.5t-73 111t-44 131t-14 136.5zM301 598q0 -97 21.5 -174.5t53.5 -122t73 -73.5t75 -39.5t64 -10.5q84 0 167 47t126 119v522q-49 70 -124.5 114t-158.5 44q-80 0 -140 -40 t-93 -105t-48.5 -136t-15.5 -145z" />
<glyph unicode="h" d="M266 0v1520h96v-672h5q54 110 149 184t211 74q41 0 83 -17t83 -52t66.5 -100t25.5 -149v-788h-96v680q0 344 -178 344q-89 0 -170 -66.5t-130 -178t-49 -234.5v-545h-96z" />
<glyph unicode="i" d="M276 1001v82h412v-1083h-96v1001h-316zM530 1397q0 44 31.5 75t75.5 31t76 -31t32 -75t-32 -75.5t-76 -31.5t-75.5 31.5t-31.5 75.5z" />
<glyph unicode="j" d="M176 57h96q0 -72 10 -126.5t34 -100t68.5 -70t109.5 -24.5q103 0 167 68t64 167v1030h-326v82h422v-1081q0 -147 -92.5 -247.5t-232.5 -100.5q-87 0 -151 33.5t-99.5 92t-52.5 127.5t-17 150zM653 1397q0 44 31.5 75t75.5 31t76 -31t32 -75t-32 -75.5t-76 -31.5 t-75.5 31.5t-31.5 75.5z" />
<glyph unicode="k" d="M311 0v1520h97v-971q295 281 466 534h125q-46 -55 -110 -133t-92 -111.5t-70 -81.5t-78 -85.5t-82 -81.5l525 -590h-129l-453 535l-102 -101v-434h-97z" />
<glyph unicode="l" d="M258 1438v82h416v-1520h-96v1438h-320z" />
<glyph unicode="m" d="M119 1106h98l27 -141q100 141 254 141q116 0 168 -131q103 131 223 131q102 0 157.5 -61.5t55.5 -165.5v-879h-96v874q0 152 -129 152q-60 0 -112.5 -40t-86.5 -99v-887h-96v831q0 31 -1.5 52.5t-8 50t-18 46.5t-34 31t-53.5 13q-66 0 -125 -46.5t-88 -111.5v-866h-96 v756q0 194 -39 350z" />
<glyph unicode="n" d="M205 1096h90l39 -312h4q32 125 145.5 223.5t239.5 98.5q71 0 122 -28.5t78.5 -78t39.5 -105.5t12 -122v-772h-96v727q0 37 -0.5 57t-3.5 56t-9 57t-18.5 48.5t-30 42.5t-44.5 25.5t-62 10.5q-49 0 -98 -19t-98 -63.5t-86.5 -109t-61 -164.5t-23.5 -222v-446h-96v543 q0 339 -43 553z" />
<glyph unicode="o" d="M201 543q0 122 24.5 220t64 161t94 105t111.5 59.5t119 17.5q58 0 113 -15.5t111 -56t97.5 -102t68 -162t26.5 -227.5t-26 -227.5t-67.5 -162.5t-97.5 -103t-111.5 -57t-113.5 -16t-113 16t-110.5 56.5t-96.5 102.5t-67 163t-26 228zM297 543q0 -70 7.5 -132.5t28.5 -129 t55 -114t92 -78t134 -30.5q77 0 135.5 30.5t92.5 78.5t55.5 114.5t29 128.5t7.5 132t-7.5 132t-29 128t-55.5 113t-92.5 77.5t-135.5 30.5q-76 0 -134 -30.5t-92 -77.5t-55 -113t-28.5 -128t-7.5 -132z" />
<glyph unicode="p" d="M209 1094l90 12l37 -178h4q41 85 116.5 131.5t170.5 46.5q57 0 113 -18t112.5 -61t99 -106.5t69 -163t26.5 -222.5q0 -124 -30.5 -224t-77 -160.5t-105.5 -101.5t-112 -56.5t-101 -15.5q-150 0 -267 93v-504h-96v1139q0 229 -49 389zM354 166q123 -107 242 -107 q41 0 84.5 11.5t93 45t87.5 84.5t63.5 139.5t25.5 201.5q0 108 -22 194.5t-56.5 139t-79 87.5t-86 48.5t-81.5 13.5q-99 0 -162 -58t-109 -159v-641z" />
<glyph unicode="q" d="M178 535q0 123 26.5 222.5t69 163t98.5 106.5t112.5 61t113.5 18q95 0 170.5 -46.5t116.5 -131.5h4l37 178l90 -12q-47 -153 -47 -389v-1139h-97v504q-120 -93 -268 -93q-48 0 -101 15.5t-112 56.5t-105.5 101.5t-77 160.5t-30.5 224zM274 541q0 -113 25.5 -201.5 t63.5 -139.5t88 -84.5t93.5 -45t84.5 -11.5q116 0 243 107v641q-48 102 -111 159.5t-161 57.5q-40 0 -81.5 -13.5t-86 -49t-79 -88t-57 -139t-22.5 -193.5z" />
<glyph unicode="r" d="M307 1096h92l37 -308q153 318 371 318q64 0 110.5 -29.5t71 -80t35 -104.5t10.5 -114h-96q-1 28 -1.5 46t-4 46t-9 47t-15.5 41t-24.5 35t-36 22t-48.5 9q-35 0 -79.5 -20.5t-94 -67t-90 -112t-67 -166.5t-26.5 -218v-440h-96v750z" />
<glyph unicode="s" d="M219 152l53 77q71 -71 170 -120.5t189 -49.5q96 0 160.5 52.5t64.5 146.5q0 39 -9 71.5t-29.5 57.5t-39 42t-54.5 35t-57.5 27t-64.5 25q-59 22 -93 37t-84.5 44.5t-78.5 59.5t-49 76.5t-21 102.5q0 113 96.5 191.5t221.5 78.5q169 0 326 -115l-41 -80q-159 113 -291 113 q-85 0 -150 -56.5t-65 -140.5q0 -36 16.5 -68.5t38.5 -54t58.5 -42.5t62.5 -32.5t63 -25.5q48 -18 72.5 -28t66.5 -30t65 -36t53 -43t45.5 -54.5t26.5 -66t11 -82.5q0 -129 -97 -208t-228 -79q-97 0 -214 52t-194 123z" />
<glyph unicode="t" d="M186 1001v82h244v349h96v-349h398v-82h-398v-739q0 -89 40 -146t132 -57q85 0 149 54t103 139l92 -23q-55 -113 -144 -182.5t-204 -69.5q-264 0 -264 342v682h-244z" />
<glyph unicode="u" d="M256 319v764h96v-718q0 -155 40.5 -230.5t127.5 -75.5q63 0 125.5 35t117.5 103t89.5 184.5t34.5 263.5v438h96v-534q0 -340 43 -549h-90l-41 307h-4q-32 -126 -145.5 -228t-237.5 -102q-71 0 -122 29.5t-78.5 80.5t-39.5 108.5t-12 123.5z" />
<glyph unicode="v" d="M213 1083h102l295 -952l297 952h103l-342 -1097h-113z" />
<glyph unicode="w" d="M102 1083h107l149 -936h4l191 658h104l191 -658h4l149 936h105l-193 -1097h-104l-205 700l-205 -700h-104z" />
<glyph unicode="x" d="M141 0l420 582l-338 501h113l278 -426l273 426h106l-327 -497l421 -586h-129l-346 516l-342 -516h-129z" />
<glyph unicode="y" d="M53 -139l82 43q61 -168 168 -168q30 0 57 14.5t45.5 32t38.5 50.5t29 52t25 54l82 186l-353 958h107l293 -831l311 831h111l-406 -1030q-65 -168 -113 -243q-98 -156 -227 -156q-88 0 -154 59t-96 148z" />
<glyph unicode="z" d="M209 0v82l672 919h-580v82h694v-82l-665 -919h690v-82h-811z" />
<glyph unicode="{" d="M383 666v4q55 14 88 33t49.5 50t21.5 64.5t5 89.5v330q0 158 65 218t230 65l4 -4q-118 -18 -160.5 -78.5t-42.5 -184.5v-329q0 -46 -3 -77t-13 -62t-29 -51t-50 -37t-77 -27v-4q46 -11 78 -29t50 -39t28 -53.5t13 -63.5t3 -78v-319q0 -120 44.5 -183.5t158.5 -76.5l-4 -4 q-172 3 -233.5 66t-61.5 231v309q0 58 -4.5 91.5t-21 65t-49.5 50.5t-89 33z" />
<glyph unicode="|" d="M569 -590v2212h90v-2212h-90z" />
<glyph unicode="}" d="M385 -176q118 18 160.5 78.5t42.5 183.5v330q0 46 3 77t13 62t29 51t50 37t77 27v4q-46 11 -78 29t-50 39t-28 53t-13 63t-3 78v319q0 120 -44.5 184t-158.5 77l4 4q172 -3 233.5 -66t61.5 -231v-310q0 -46 2.5 -74.5t12 -57.5t27 -47t47.5 -33.5t75 -26.5v-4 q-104 -26 -134 -76.5t-30 -161.5v-330q0 -158 -65 -217.5t-230 -64.5z" />
<glyph unicode="~" d="M61 618q27 48 53.5 86t64 78t83.5 62t96 22q57 0 133 -24t137 -52.5t126.5 -52.5t103.5 -24q74 0 141 57.5t103 132.5l65 -47q-51 -95 -132.5 -164t-174.5 -69q-51 0 -151.5 38.5t-198 76.5t-141.5 38q-35 0 -66 -12t-52.5 -28t-45.5 -45.5t-37 -49.5t-34 -55l-9 -15z " />
<glyph unicode="&#xa0;" />
<glyph unicode="&#xa1;" d="M471 1364q0 57 40 98t97 41t98.5 -41t41.5 -98t-41.5 -97t-98.5 -40t-97 40t-40 97zM543 0l26 1010h82l35 -1010h-143z" />
<glyph unicode="&#xa2;" d="M225 752q0 109 19.5 200t63 170.5t121 132t185.5 70.5v195h97v-195q193 -14 336 -217l-93 -61q-82 174 -243 196v-960q124 17 260 168l65 -70q-155 -158 -325 -180v-283h-97v283q-83 13 -149 49t-110.5 87.5t-74 119t-42.5 141t-13 154.5zM322 768q0 -87 13.5 -160.5 t45 -141.5t91 -115.5t142.5 -65.5v956q-292 -56 -292 -473z" />
<glyph unicode="&#xa3;" d="M170 791v81h213q-55 174 -55 285q0 149 105 247.5t253 98.5q120 0 220.5 -59.5t148.5 -165.5l-92 -31q-41 81 -110 127.5t-157 46.5q-114 0 -193 -75t-79 -203q0 -39 7.5 -83.5t16.5 -78t31 -109.5h410v-81h-385q57 -222 57 -312q0 -99 -40.5 -188.5t-114.5 -198.5l4 -4 q40 19 62 28t59 18t75 9q94 0 164 -30q11 -4 32 -13.5t33 -14t29 -9t31 -4.5q61 0 154 80l53 -64q-39 -43 -91.5 -70.5t-105.5 -27.5q-58 0 -152.5 35.5t-154.5 35.5q-109 0 -248 -84l-57 78q102 174 137 259t35 151q0 125 -59 326h-236z" />
<glyph unicode="&#xa4;" d="M23 219l223 219q-103 139 -103 299t103 299l-223 219l67 66l221 -219q130 106 303 106q174 0 304 -106l221 219l67 -66l-223 -219q102 -138 102 -299t-102 -299l223 -219l-67 -65l-221 219q-131 -107 -304 -107q-172 0 -303 107l-221 -219zM223 737q0 -166 112.5 -278.5 t278.5 -112.5t279 112.5t113 278.5t-113 279.5t-279 113.5t-278.5 -113.5t-112.5 -279.5z" />
<glyph unicode="&#xa5;" d="M158 1475h114l306 -738l303 738h114l-370 -850v-64h247v-82h-247v-479h-97v479h-245v82h245v64z" />
<glyph unicode="&#xa6;" d="M569 358h90v-716h-90v716zM569 666v716h90v-716h-90z" />
<glyph unicode="&#xa7;" d="M231 827q0 75 43 135t115 95q-76 76 -76 178q0 127 81 197.5t210 70.5q149 0 240 -82.5t82 -236.5h-97q5 111 -50 174t-167 63q-85 0 -143.5 -44t-58.5 -126q0 -22 5 -42.5t9.5 -35t18.5 -33t20.5 -27.5t28 -27t27.5 -22.5t32.5 -24.5t30.5 -23l123 -94 q13 -10 48.5 -36.5t56 -42.5t53.5 -44t52.5 -51.5t40 -52.5t30 -60t9.5 -62q0 -75 -42.5 -134.5t-114.5 -94.5q77 -77 77 -178q0 -127 -81.5 -197.5t-208.5 -70.5q-151 0 -241 82.5t-81 236.5h94q-5 -111 50.5 -174t168.5 -63q84 0 143.5 44t59.5 126q0 29 -8.5 55t-17 43 t-31.5 40t-33.5 32t-42.5 33.5t-41 31.5l-121 94q-16 13 -57.5 44t-66.5 50.5t-61 53.5t-56.5 62t-36 65t-15.5 73zM328 842q0 -76 78 -150l380 -299q52 19 82.5 64t30.5 102q0 89 -78 150l-379 299q-53 -19 -83.5 -63.5t-30.5 -102.5z" />
<glyph unicode="&#xa8;" d="M311 1335q0 47 34 81t81 34t81 -34t34 -81t-34 -80.5t-81 -33.5t-81 33.5t-34 80.5zM686 1335q0 47 34 81t81 34t80.5 -34t33.5 -81t-33.5 -80.5t-80.5 -33.5t-81 33.5t-34 80.5z" />
<glyph unicode="&#xa9;" d="M0 739q0 209 81.5 384.5t222 277.5t306.5 102t306 -102t220.5 -277.5t80.5 -384.5q0 -210 -80.5 -386.5t-220.5 -279t-306 -102.5t-306.5 102.5t-222 279t-81.5 386.5zM82 739q0 -184 70 -342t191.5 -251t266.5 -93q144 0 265 93t190.5 251t69.5 342q0 182 -69.5 339 t-190.5 250t-265 93t-266 -93t-192 -250t-70 -339zM299 745q0 192 91.5 316.5t242.5 124.5q110 0 186.5 -77.5t93.5 -211.5h-82q-12 89 -68 148t-128 59q-116 0 -185 -103.5t-69 -252.5q0 -92 30.5 -175t90.5 -136.5t135 -53.5q73 0 129 62t65 155h82q-12 -133 -90.5 -216 t-185.5 -83q-149 0 -243.5 127.5t-94.5 316.5z" />
<glyph unicode="&#xaa;" d="M360 645v70h486v-70h-486zM365 1030q0 107 58 173.5t163 66.5q61 0 145 -25q0 99 -30 144t-91 45q-71 0 -180 -56l-16 92q13 3 47.5 10.5t52.5 11.5t46 7.5t52 3.5q88 0 142.5 -63.5t54.5 -190.5v-245q0 -33 3.5 -57.5t12 -58.5t13.5 -59l-74 -10l-23 92 q-43 -47 -83 -68.5t-97 -21.5q-89 0 -142.5 59.5t-53.5 149.5zM446 1028q0 -55 30.5 -96t84.5 -41q83 0 166 123v153q-93 33 -137 33q-71 0 -107.5 -49t-36.5 -123z" />
<glyph unicode="&#xab;" d="M68 729l530 510l59 -61l-469 -449l469 -448l-59 -66zM573 729l531 510l59 -61l-469 -449l469 -448l-59 -66z" />
<glyph unicode="&#xac;" d="M70 829v91h1089v-566h-90v475h-999z" />
<glyph unicode="&#xad;" d="M373 694v82h483v-82h-483z" />
<glyph unicode="&#xae;" d="M0 739q0 208 82 383.5t224 278t310 102.5q167 0 308.5 -102.5t223 -278t81.5 -383.5q0 -157 -48.5 -299.5t-130.5 -245t-195.5 -163t-238.5 -60.5q-168 0 -310 102.5t-224 279t-82 386.5zM82 739q0 -185 70.5 -342.5t193.5 -250.5t270 -93q146 0 268.5 93t192.5 250.5 t70 342.5q0 137 -41.5 262.5t-112 218t-169.5 147t-208 54.5q-147 0 -270 -92.5t-193.5 -249.5t-70.5 -340zM389 309v856h297q122 0 182 -55t60 -172q0 -118 -57.5 -174t-155.5 -59l207 -396h-101l-194 396h-156v-396h-82zM471 786h207q75 0 121.5 33.5t46.5 122.5 q0 38 -11 65.5t-26.5 42t-41.5 22t-47 9.5t-52 2h-197v-297z" />
<glyph unicode="&#xaf;" d="M319 1292v82h590v-82h-590z" />
<glyph unicode="&#xb0;" d="M219 1124q0 164 115.5 280t279.5 116t280 -116t116 -280q0 -163 -116 -279t-280 -116t-279.5 116t-115.5 279zM305 1124q0 -128 90.5 -218.5t218.5 -90.5t219 91t91 218q0 128 -91 219t-219 91q-127 0 -218 -91t-91 -219z" />
<glyph unicode="&#xb1;" d="M70 96v90h1089v-90h-1089zM70 788v91h499v499h90v-499h500v-91h-500v-499h-90v499h-499z" />
<glyph unicode="&#xb2;" d="M389 692q-2 125 31 201t139 166q4 3 32.5 26.5t38.5 33t35.5 33t37 39t27 37.5t22 43t6.5 42q0 58 -32.5 91.5t-90.5 33.5q-68 0 -105.5 -47.5t-40.5 -118.5h-81q6 105 65.5 168t163.5 63q94 0 148.5 -51t54.5 -143q0 -30 -11 -60.5t-23 -51t-41 -51.5t-41.5 -43 t-50.5 -45t-44 -38q-34 -30 -50.5 -45.5t-40.5 -43t-35 -49.5t-20.5 -54.5t-11.5 -69.5h371v-66h-453z" />
<glyph unicode="&#xb3;" d="M356 825l72 43q29 -64 70.5 -95.5t107.5 -31.5q72 0 118 45t46 117q0 95 -57 139.5t-156 44.5v66q72 -5 125 38t53 114q0 58 -42 95.5t-101 37.5q-49 0 -90.5 -33.5t-63.5 -81.5l-69 39q77 141 233 141q89 0 152 -59.5t63 -147.5q0 -107 -110 -172q145 -63 145 -209 q0 -106 -70 -172.5t-176 -66.5q-87 0 -144.5 36.5t-105.5 112.5z" />
<glyph unicode="&#xb4;" d="M459 1237l325 266l76 -86l-356 -241z" />
<glyph unicode="&#xb5;" d="M260 -475v1536h96v-631q0 -103 25 -179.5t65 -116t80.5 -57.5t81.5 -18q33 0 66.5 10.5t70 39t64 72t45.5 116.5t18 166v598h97v-1061h-97v190h-4q-35 -88 -100 -150.5t-150 -62.5q-87 0 -155 57.5t-103 143.5h-4v-653h-96z" />
<glyph unicode="&#xb6;" d="M117 1075q0 33 3 62t14.5 71.5t31.5 77t57 71t87.5 61.5t127 41t170.5 16h504v-82h-94v-1624h-96v1624h-256v-1624h-97v913q-91 -7 -173.5 18.5t-144 76t-98 128t-36.5 170.5z" />
<glyph unicode="&#xb7;" d="M512 737q0 43 29.5 73t72.5 30t73 -30t30 -73t-30 -72.5t-73 -29.5t-72.5 29.5t-29.5 72.5z" />
<glyph unicode="&#xb8;" d="M451 -352l24 67q97 -37 146 -37q36 0 71 19.5t35 52.5q0 26 -21.5 42.5t-46 21t-51.5 4.5q-20 0 -44.5 -2t-28.5 -2l73 213h74l-47 -140q36 -1 67.5 -8.5t59.5 -23t44.5 -43.5t16.5 -66q0 -67 -55 -108t-125 -41q-76 0 -192 51z" />
<glyph unicode="&#xb9;" d="M418 1356v71l241 76v-768h148v-65h-381v65h152v670z" />
<glyph unicode="&#xba;" d="M346 1161q0 66 14.5 124.5t44.5 109t83.5 79.5t125.5 29q130 0 199.5 -94.5t69.5 -247.5q0 -96 -27 -170.5t-89.5 -122t-152.5 -47.5q-130 0 -199 92.5t-69 247.5zM371 645v70h487v-70h-487zM428 1161q0 -52 8 -95t27 -85t57.5 -66t93.5 -24q44 0 77.5 16.5t54 42.5 t33.5 63t17.5 72.5t4.5 75.5q0 52 -8.5 96.5t-27.5 86t-58 66t-93 24.5q-55 0 -93.5 -24t-57.5 -66.5t-27 -86.5t-8 -96z" />
<glyph unicode="&#xbb;" d="M66 281l469 448l-469 449l59 61l530 -510l-530 -514zM573 281l469 448l-469 449l60 61l530 -510l-530 -514z" />
<glyph unicode="&#xbc;" d="M109 1356v71l241 76v-768h148v-65h-381v65h151v670zM287 0l674 1503h81l-673 -1503h-82zM653 207v51l299 553h107v-539h117v-65h-117v-207h-82v207h-324zM745 272h232v435h-4z" />
<glyph unicode="&#xbd;" d="M109 1356v71l241 76v-768h148v-65h-381v65h151v670zM254 0l676 1503h84l-678 -1503h-82zM696 0q-2 125 31 201t139 166q4 3 32.5 26.5t38.5 33t35.5 33t37 39t27 37.5t22 43t6.5 42q0 57 -32.5 90.5t-90.5 33.5q-68 0 -105 -47t-40 -118h-82q6 105 65.5 168t163.5 63 q94 0 148.5 -51t54.5 -144q0 -30 -11 -60t-23 -51t-40.5 -51.5t-42 -43.5t-50 -44t-44.5 -38q-34 -30 -50.5 -45.5t-40.5 -43t-35 -49.5t-20.5 -54.5t-11.5 -69.5h371v-66h-453z" />
<glyph unicode="&#xbe;" d="M49 825l72 43q29 -64 70.5 -95.5t107.5 -31.5q72 0 118 45t46 117q0 95 -57 139.5t-156 44.5v66q72 -5 125 38t53 114q0 58 -42 95.5t-101 37.5q-49 0 -90.5 -33.5t-63.5 -81.5l-70 39q77 141 234 141q89 0 152 -59.5t63 -147.5q0 -107 -111 -172q146 -63 146 -209 q0 -106 -70 -172.5t-176 -66.5q-87 0 -144.5 36.5t-105.5 112.5zM287 0l674 1503h81l-673 -1503h-82zM653 207v51l299 553h107v-539h117v-65h-117v-207h-82v207h-324zM745 272h232v435h-4z" />
<glyph unicode="&#xbf;" d="M283 324q0 58 10.5 101.5t35.5 80.5t53.5 64.5t78.5 66.5q24 19 39.5 31.5t30 28.5t21.5 23.5t13.5 25.5t9 25.5t4 32.5t1.5 37.5v49.5v125h96v-201q0 -71 -17 -108q-23 -54 -155 -156q-66 -53 -95.5 -104t-29.5 -130q0 -119 67.5 -191.5t184.5 -72.5q105 0 170.5 63.5 t68.5 168.5h103q-12 -147 -104 -230.5t-240 -83.5q-162 0 -254 95.5t-92 257.5zM471 1364q0 57 40 98t97 41t98.5 -41t41.5 -98t-41.5 -97t-98.5 -40t-97 40t-40 97z" />
<glyph unicode="&#xc0;" d="M125 0l491 1534l494 -1534h-109l-133 449h-501l-136 -449h-106zM369 1808l75 86l326 -266l-45 -61zM387 530h461l-232 742z" />
<glyph unicode="&#xc1;" d="M125 0l491 1534l494 -1534h-109l-133 449h-501l-136 -449h-106zM387 530h461l-232 742zM500 1628l325 266l76 -86l-356 -241z" />
<glyph unicode="&#xc2;" d="M125 0l491 1534l494 -1534h-109l-133 449h-501l-136 -449h-106zM281 1610l333 291l334 -291l-47 -51l-287 215l-286 -215zM387 530h461l-232 742z" />
<glyph unicode="&#xc3;" d="M125 0l491 1534l494 -1534h-109l-133 449h-501l-136 -449h-106zM238 1638q86 193 227 193q16 0 32 -3t28 -6.5t28.5 -12t25 -13t27 -16t25.5 -15.5q2 -1 21.5 -13l26 -16t24 -13.5t28 -13.5t25 -7.5t26.5 -3.5q89 0 133 110l76 -30q-28 -68 -83 -114t-124 -46 q-46 0 -83 16t-89 49q-37 25 -51 34t-45 20.5t-59 11.5q-85 0 -146 -137zM387 530h461l-232 742z" />
<glyph unicode="&#xc4;" d="M125 0l491 1534l494 -1534h-109l-133 449h-501l-136 -449h-106zM311 1726q0 47 34 81t81 34t81 -34t34 -81t-34 -80.5t-81 -33.5t-81 33.5t-34 80.5zM387 530h461l-232 742zM686 1726q0 47 34 81t81 34t80.5 -34t33.5 -81t-33.5 -80.5t-80.5 -33.5t-81 33.5t-34 80.5z " />
<glyph unicode="&#xc5;" d="M125 0l491 1534l494 -1534h-109l-133 449h-501l-136 -449h-106zM387 530h461l-232 742zM446 1708q0 69 49.5 118.5t118.5 49.5t118.5 -49.5t49.5 -118.5t-49.5 -118.5t-118.5 -49.5t-118.5 49.5t-49.5 118.5zM520 1708q0 -38 28 -66t66 -28t66.5 28t28.5 66 q0 39 -28 66.5t-67 27.5t-66.5 -27.5t-27.5 -66.5z" />
<glyph unicode="&#xc6;" d="M66 0l403 1475h637v-82h-426v-588h297v-82h-297v-641h442v-82h-538v455h-297l-117 -455h-104zM309 537h275v856h-54z" />
<glyph unicode="&#xc7;" d="M197 717q0 75 4 142.5t16.5 149.5t33.5 149.5t57 133t84.5 111t119 73t156.5 27.5q136 0 232 -86.5t108 -220.5h-97q-4 96 -74.5 160.5t-168.5 64.5q-71 0 -128 -26t-95 -67t-66 -102t-43 -120t-23.5 -133t-11 -128t-2.5 -118q0 -62 2 -114.5t10.5 -125t23 -129 t41.5 -116t63.5 -99t91.5 -65t124 -25.5q115 0 193.5 76t83.5 190h96q-15 -159 -111 -251t-253 -95l-29 -86q36 -1 67.5 -8.5t59.5 -23t44.5 -43.5t16.5 -66q0 -67 -55 -108t-125 -41q-76 0 -192 51l24 67q97 -37 146 -37q36 0 71 19.5t35 52.5q0 26 -21.5 42.5t-46 21 t-51.5 4.5q-20 0 -44.5 -2t-28.5 -2l55 161q-81 10 -146 49t-106.5 99.5t-70.5 130.5t-43.5 154.5t-20.5 157t-6 151.5z" />
<glyph unicode="&#xc8;" d="M309 0v1475h721v-82h-624v-594h448v-82h-448v-635h638v-82h-735zM389 1808l76 86l326 -266l-46 -61z" />
<glyph unicode="&#xc9;" d="M309 0v1475h721v-82h-624v-594h448v-82h-448v-635h638v-82h-735zM500 1628l325 266l76 -86l-356 -241z" />
<glyph unicode="&#xca;" d="M309 0v1475h721v-82h-624v-594h448v-82h-448v-635h638v-82h-735zM322 1610l333 291l334 -291l-47 -51l-287 215l-286 -215z" />
<glyph unicode="&#xcb;" d="M309 0v1475h721v-82h-624v-594h448v-82h-448v-635h638v-82h-735zM342 1726q0 47 34 81t81 34t80.5 -34t33.5 -81t-33.5 -80.5t-80.5 -33.5t-81 33.5t-34 80.5zM717 1726q0 47 33.5 81t80.5 34t81 -34t34 -81t-34 -80.5t-81 -33.5t-80.5 33.5t-33.5 80.5z" />
<glyph unicode="&#xcc;" d="M360 0v82h205v1311h-205v82h506v-82h-204v-1311h204v-82h-506zM369 1808l75 86l326 -266l-45 -61z" />
<glyph unicode="&#xcd;" d="M360 0v82h205v1311h-205v82h506v-82h-204v-1311h204v-82h-506zM459 1628l325 266l76 -86l-356 -241z" />
<glyph unicode="&#xce;" d="M281 1610l333 291l334 -291l-47 -51l-287 215l-286 -215zM360 0v82h205v1311h-205v82h506v-82h-204v-1311h204v-82h-506z" />
<glyph unicode="&#xcf;" d="M311 1726q0 47 34 81t81 34t81 -34t34 -81t-34 -80.5t-81 -33.5t-81 33.5t-34 80.5zM360 0v82h205v1311h-205v82h506v-82h-204v-1311h204v-82h-506zM686 1726q0 47 34 81t81 34t80.5 -34t33.5 -81t-33.5 -80.5t-80.5 -33.5t-81 33.5t-34 80.5z" />
<glyph unicode="&#xd0;" d="M49 725v82h203v668h369q122 0 212.5 -58t139.5 -151q90 -165 90 -529q0 -131 -14 -239.5t-36 -176t-38 -101.5t-31 -56q-116 -164 -352 -164h-340v725h-203zM348 82h182q69 0 117.5 6.5t99 25t88.5 57.5t64 99q62 142 62 467q0 345 -68 482q-28 56 -66 92.5t-87.5 53.5 t-96 22.5t-113.5 5.5h-182v-586h295v-82h-295v-643z" />
<glyph unicode="&#xd1;" d="M238 1638q86 193 227 193q16 0 32 -3t28 -6.5t28.5 -12t25 -13t27 -16t25.5 -15.5q2 -1 21.5 -13l26 -16t24 -13.5t28 -13.5t25 -7.5t26.5 -3.5q89 0 133 110l76 -30q-28 -68 -83 -114t-124 -46q-46 0 -83 16t-89 49q-37 25 -51 34t-45 20.5t-59 11.5q-85 0 -146 -137z M256 0v1475h139l502 -1264l4 4v1260h96v-1489h-100l-541 1355l-4 -4v-1337h-96z" />
<glyph unicode="&#xd2;" d="M180 737q0 82 3.5 149t14.5 149t29.5 145.5t51.5 126t78 104t111.5 67t149.5 25.5q89 0 160 -31t115.5 -75t76.5 -118t47 -132.5t23.5 -148.5t9.5 -136t1 -123v-2q0 -183 -23 -320t-61 -221t-95 -135.5t-117.5 -70.5t-136.5 -19q-53 0 -98 9t-90.5 32.5t-82 61t-68.5 97 t-53.5 138.5t-33.5 187.5t-12 240.5zM283 737q0 -161 17.5 -282.5t47 -197t73.5 -122t91 -64.5t106 -18q77 0 135 33t103 109.5t68.5 212t23.5 329.5q0 161 -16.5 281.5t-45 196.5t-71.5 123t-90 65t-107 18q-110 0 -182 -64t-112.5 -217.5t-40.5 -402.5zM369 1808l75 86 l326 -266l-45 -61z" />
<glyph unicode="&#xd3;" d="M180 737q0 82 3.5 149t14.5 149t29.5 145.5t51.5 126t78 104t111.5 67t149.5 25.5q89 0 160 -31t115.5 -75t76.5 -118t47 -132.5t23.5 -148.5t9.5 -136t1 -123v-2q0 -183 -23 -320t-61 -221t-95 -135.5t-117.5 -70.5t-136.5 -19q-53 0 -98 9t-90.5 32.5t-82 61t-68.5 97 t-53.5 138.5t-33.5 187.5t-12 240.5zM283 737q0 -161 17.5 -282.5t47 -197t73.5 -122t91 -64.5t106 -18q77 0 135 33t103 109.5t68.5 212t23.5 329.5q0 161 -16.5 281.5t-45 196.5t-71.5 123t-90 65t-107 18q-110 0 -182 -64t-112.5 -217.5t-40.5 -402.5zM459 1628l325 266 l76 -86l-356 -241z" />
<glyph unicode="&#xd4;" d="M180 737q0 82 3.5 149t14.5 149t29.5 145.5t51.5 126t78 104t111.5 67t149.5 25.5q89 0 160 -31t115.5 -75t76.5 -118t47 -132.5t23.5 -148.5t9.5 -136t1 -123v-2q0 -183 -23 -320t-61 -221t-95 -135.5t-117.5 -70.5t-136.5 -19q-53 0 -98 9t-90.5 32.5t-82 61t-68.5 97 t-53.5 138.5t-33.5 187.5t-12 240.5zM281 1610l333 291l334 -291l-47 -51l-287 215l-286 -215zM283 737q0 -161 17.5 -282.5t47 -197t73.5 -122t91 -64.5t106 -18q77 0 135 33t103 109.5t68.5 212t23.5 329.5q0 161 -16.5 281.5t-45 196.5t-71.5 123t-90 65t-107 18 q-110 0 -182 -64t-112.5 -217.5t-40.5 -402.5z" />
<glyph unicode="&#xd5;" d="M180 737q0 82 3.5 149t14.5 149t29.5 145.5t51.5 126t78 104t111.5 67t149.5 25.5q89 0 160 -31t115.5 -75t76.5 -118t47 -132.5t23.5 -148.5t9.5 -136t1 -123v-2q0 -183 -23 -320t-61 -221t-95 -135.5t-117.5 -70.5t-136.5 -19q-53 0 -98 9t-90.5 32.5t-82 61t-68.5 97 t-53.5 138.5t-33.5 187.5t-12 240.5zM238 1638q86 193 227 193q16 0 32 -3t28 -6.5t28.5 -12t25 -13t27 -16t25.5 -15.5q2 -1 21.5 -13l26 -16t24 -13.5t28 -13.5t25 -7.5t26.5 -3.5q89 0 133 110l76 -30q-28 -68 -83 -114t-124 -46q-46 0 -83 16t-89 49q-37 25 -51 34 t-45 20.5t-59 11.5q-85 0 -146 -137zM283 737q0 -161 17.5 -282.5t47 -197t73.5 -122t91 -64.5t106 -18q77 0 135 33t103 109.5t68.5 212t23.5 329.5q0 161 -16.5 281.5t-45 196.5t-71.5 123t-90 65t-107 18q-110 0 -182 -64t-112.5 -217.5t-40.5 -402.5z" />
<glyph unicode="&#xd6;" d="M180 737q0 82 3.5 149t14.5 149t29.5 145.5t51.5 126t78 104t111.5 67t149.5 25.5q89 0 160 -31t115.5 -75t76.5 -118t47 -132.5t23.5 -148.5t9.5 -136t1 -123v-2q0 -183 -23 -320t-61 -221t-95 -135.5t-117.5 -70.5t-136.5 -19q-53 0 -98 9t-90.5 32.5t-82 61t-68.5 97 t-53.5 138.5t-33.5 187.5t-12 240.5zM283 737q0 -161 17.5 -282.5t47 -197t73.5 -122t91 -64.5t106 -18q77 0 135 33t103 109.5t68.5 212t23.5 329.5q0 161 -16.5 281.5t-45 196.5t-71.5 123t-90 65t-107 18q-110 0 -182 -64t-112.5 -217.5t-40.5 -402.5zM311 1726 q0 47 34 81t81 34t81 -34t34 -81t-34 -80.5t-81 -33.5t-81 33.5t-34 80.5zM686 1726q0 47 34 81t81 34t80.5 -34t33.5 -81t-33.5 -80.5t-80.5 -33.5t-81 33.5t-34 80.5z" />
<glyph unicode="&#xd7;" d="M70 258l481 479l-481 482l63 63l481 -481l482 481l63 -63l-481 -482l481 -479l-63 -65l-482 481l-481 -481z" />
<glyph unicode="&#xd8;" d="M168 -8l104 186q-57 113 -74.5 244t-17.5 303q0 61 1 102t5 109.5t11.5 117t23 111.5t37 107.5t55 91t75 75t99.5 46.5t127 18q93 0 175 -40.5t137 -114.5l69 127l68 -41l-92 -164q82 -190 82 -520q0 -55 -1 -97.5t-6 -107.5t-13 -116t-24 -113t-38 -108.5t-55.5 -93 t-75.5 -76.5t-100 -48.5t-126 -18.5q-178 0 -292 135l-86 -153zM283 725q0 -93 2 -152t13.5 -141t33.5 -147l540 970q-42 76 -108.5 121t-149.5 45q-61 0 -110.5 -18.5t-83 -51.5t-59 -77t-39 -94.5t-24 -105.5t-12 -109t-3.5 -105t0 -95v-40zM371 197q41 -66 104.5 -105 t138.5 -39q80 0 140 37t97 99t59.5 154t31 189t8.5 218q0 264 -41 409z" />
<glyph unicode="&#xd9;" d="M225 356v1119h97v-1047q0 -102 22.5 -176.5t64 -117t92 -62t113.5 -19.5q133 0 211 84.5t78 257.5v1080h96v-1096q0 -104 -36.5 -185.5t-95 -128.5t-123.5 -70.5t-130 -23.5q-155 0 -272 112.5t-117 272.5zM369 1808l75 86l326 -266l-45 -61z" />
<glyph unicode="&#xda;" d="M225 356v1119h97v-1047q0 -102 22.5 -176.5t64 -117t92 -62t113.5 -19.5q133 0 211 84.5t78 257.5v1080h96v-1096q0 -104 -36.5 -185.5t-95 -128.5t-123.5 -70.5t-130 -23.5q-155 0 -272 112.5t-117 272.5zM459 1628l325 266l76 -86l-356 -241z" />
<glyph unicode="&#xdb;" d="M225 356v1119h97v-1047q0 -102 22.5 -176.5t64 -117t92 -62t113.5 -19.5q133 0 211 84.5t78 257.5v1080h96v-1096q0 -104 -36.5 -185.5t-95 -128.5t-123.5 -70.5t-130 -23.5q-155 0 -272 112.5t-117 272.5zM281 1610l333 291l334 -291l-47 -51l-287 215l-286 -215z" />
<glyph unicode="&#xdc;" d="M225 356v1119h97v-1047q0 -102 22.5 -176.5t64 -117t92 -62t113.5 -19.5q133 0 211 84.5t78 257.5v1080h96v-1096q0 -104 -36.5 -185.5t-95 -128.5t-123.5 -70.5t-130 -23.5q-155 0 -272 112.5t-117 272.5zM311 1726q0 47 34 81t81 34t81 -34t34 -81t-34 -80.5t-81 -33.5 t-81 33.5t-34 80.5zM686 1726q0 47 34 81t81 34t80.5 -34t33.5 -81t-33.5 -80.5t-80.5 -33.5t-81 33.5t-34 80.5z" />
<glyph unicode="&#xdd;" d="M158 1475h108l309 -738l312 738h108l-370 -850v-625h-97v625zM459 1628l325 266l76 -86l-356 -241z" />
<glyph unicode="&#xde;" d="M297 0v1475h96v-301h236q89 0 159 -24.5t115.5 -66t75.5 -99t42.5 -119.5t12.5 -132q0 -213 -121 -323.5t-333 -110.5h-187v-299h-96zM393 381h172q187 0 277 93t90 257q0 99 -24.5 172t-68 112.5t-94 58t-110.5 18.5h-242v-711z" />
<glyph unicode="&#xdf;" d="M303 0v1190q0 48 20.5 101.5t57.5 101.5t97.5 79t131.5 31q150 0 241 -108t91 -262q0 -214 -209 -338q143 -48 205.5 -150t62.5 -260q0 -200 -90 -304t-225 -104q-87 0 -162 56l43 69q62 -43 127 -43q96 0 153.5 88t57.5 228q0 99 -24 168.5t-72.5 111.5t-113 63 t-154.5 27v82q132 6 218.5 93.5t86.5 220.5q0 115 -67 197.5t-179 82.5q-95 0 -148 -64.5t-53 -180.5v-1176h-96z" />
<glyph unicode="&#xe0;" d="M227 322q0 105 37 191.5t112.5 140t176.5 53.5q116 0 264 -72q5 211 -43 300t-178 89q-64 0 -122.5 -18t-137.5 -54l-23 88q168 66 289 66q150 0 232.5 -100t78.5 -281l-12 -442q-2 -121 53 -293l-88 -13q-32 95 -41 185q-64 -92 -131.5 -138.5t-165.5 -46.5 q-142 0 -221.5 100t-79.5 245zM324 313q0 -100 54 -177t150 -77q48 0 90.5 17.5t77.5 51.5t61 68.5t54 82.5v280q-128 66 -236 66q-126 0 -188.5 -90t-62.5 -222zM369 1417l75 86l326 -266l-45 -61z" />
<glyph unicode="&#xe1;" d="M227 322q0 105 37 191.5t112.5 140t176.5 53.5q116 0 264 -72q5 211 -43 300t-178 89q-64 0 -122.5 -18t-137.5 -54l-23 88q168 66 289 66q150 0 232.5 -100t78.5 -281l-12 -442q-2 -121 53 -293l-88 -13q-32 95 -41 185q-64 -92 -131.5 -138.5t-165.5 -46.5 q-142 0 -221.5 100t-79.5 245zM324 313q0 -100 54 -177t150 -77q48 0 90.5 17.5t77.5 51.5t61 68.5t54 82.5v280q-128 66 -236 66q-126 0 -188.5 -90t-62.5 -222zM479 1237l326 266l76 -86l-357 -241z" />
<glyph unicode="&#xe2;" d="M227 322q0 105 37 191.5t112.5 140t176.5 53.5q116 0 264 -72q5 211 -43 300t-178 89q-64 0 -122.5 -18t-137.5 -54l-23 88q168 66 289 66q150 0 232.5 -100t78.5 -281l-12 -442q-2 -121 53 -293l-88 -13q-32 95 -41 185q-64 -92 -131.5 -138.5t-165.5 -46.5 q-142 0 -221.5 100t-79.5 245zM281 1219l333 290l334 -290l-47 -52l-287 215l-286 -215zM324 313q0 -100 54 -177t150 -77q48 0 90.5 17.5t77.5 51.5t61 68.5t54 82.5v280q-128 66 -236 66q-126 0 -188.5 -90t-62.5 -222z" />
<glyph unicode="&#xe3;" d="M227 322q0 105 37 191.5t112.5 140t176.5 53.5q116 0 264 -72q5 211 -43 300t-178 89q-64 0 -122.5 -18t-137.5 -54l-23 88q168 66 289 66q150 0 232.5 -100t78.5 -281l-12 -442q-2 -121 53 -293l-88 -13q-32 95 -41 185q-64 -92 -131.5 -138.5t-165.5 -46.5 q-142 0 -221.5 100t-79.5 245zM238 1247q86 193 227 193q16 0 32 -3t28 -6.5t28.5 -12t25 -13t27 -16t25.5 -15.5q2 -1 21.5 -13l26 -16t24 -13.5t28 -13.5t25 -7.5t26.5 -3.5q89 0 133 110l76 -31q-28 -68 -83 -113.5t-124 -45.5q-46 0 -83 16t-89 49q-37 25 -51 34 t-45 20.5t-59 11.5q-85 0 -146 -137zM324 313q0 -100 54 -177t150 -77q48 0 90.5 17.5t77.5 51.5t61 68.5t54 82.5v280q-128 66 -236 66q-126 0 -188.5 -90t-62.5 -222z" />
<glyph unicode="&#xe4;" d="M227 322q0 105 37 191.5t112.5 140t176.5 53.5q116 0 264 -72q5 211 -43 300t-178 89q-64 0 -122.5 -18t-137.5 -54l-23 88q168 66 289 66q150 0 232.5 -100t78.5 -281l-12 -442q-2 -121 53 -293l-88 -13q-32 95 -41 185q-64 -92 -131.5 -138.5t-165.5 -46.5 q-142 0 -221.5 100t-79.5 245zM291 1335q0 47 34 81t81 34t80.5 -34t33.5 -81t-33.5 -80.5t-80.5 -33.5t-81 33.5t-34 80.5zM324 313q0 -100 54 -177t150 -77q48 0 90.5 17.5t77.5 51.5t61 68.5t54 82.5v280q-128 66 -236 66q-126 0 -188.5 -90t-62.5 -222zM666 1335 q0 47 33.5 81t80.5 34t81 -34t34 -81t-34 -80.5t-81 -33.5t-80.5 33.5t-33.5 80.5z" />
<glyph unicode="&#xe5;" d="M227 322q0 105 37 191.5t112.5 140t176.5 53.5q116 0 264 -72q5 211 -43 300t-178 89q-64 0 -122.5 -18t-137.5 -54l-23 88q168 66 289 66q150 0 232.5 -100t78.5 -281l-12 -442q-2 -121 53 -293l-88 -13q-32 95 -41 185q-64 -92 -131.5 -138.5t-165.5 -46.5 q-142 0 -221.5 100t-79.5 245zM324 313q0 -100 54 -177t150 -77q48 0 90.5 17.5t77.5 51.5t61 68.5t54 82.5v280q-128 66 -236 66q-126 0 -188.5 -90t-62.5 -222zM436 1352q0 69 49.5 118.5t118.5 49.5t118.5 -49.5t49.5 -118.5t-49.5 -118.5t-118.5 -49.5t-118.5 49.5 t-49.5 118.5zM510 1352q0 -38 28 -66.5t66 -28.5t66 28.5t28 66.5q0 39 -27.5 66.5t-66.5 27.5t-66.5 -27.5t-27.5 -66.5z" />
<glyph unicode="&#xe6;" d="M96 319q0 101 33 185.5t107 140t178 55.5q80 0 151 -36v155q0 103 -31.5 154t-99.5 51q-41 0 -87 -17t-72.5 -33t-84.5 -54l-22 86q172 102 266 102q113 0 172 -86q78 84 199 84q148 0 237 -154q45 -78 68 -194t14 -228h-462v-262q0 -111 31 -160t106 -49q49 0 107.5 20 t95.5 40t96 55l35 -80q-204 -117 -332 -117q-141 0 -195 95q-91 -95 -225 -95q-71 0 -126.5 28.5t-89.5 77t-51.5 108.5t-17.5 128zM193 313q0 -103 54.5 -178.5t153.5 -75.5q27 0 49 4.5t38 11.5t28.5 20t20.5 24t13.5 31t8.5 33t4.5 38t1.5 38.5v40.5v9v262 q-74 47 -157 47q-58 0 -101.5 -28.5t-67 -75t-35 -97t-11.5 -104.5zM662 612h366q1 48 -5 99.5t-23 108.5t-42.5 101.5t-69.5 73.5t-100 29q-68 0 -97 -46t-29 -153v-213z" />
<glyph unicode="&#xe7;" d="M225 530q0 106 18.5 194.5t52 150t76 107.5t93.5 72.5t101.5 39t103.5 12.5q227 0 372 -219l-86 -58q-45 90 -118 142.5t-168 52.5q-45 0 -88.5 -11.5t-92 -44t-84.5 -83.5t-59.5 -138t-23.5 -200q0 -108 22 -193.5t57 -139.5t82.5 -90t95 -50.5t97.5 -14.5 q152 0 295 170l65 -69q-83 -90 -166.5 -136.5t-191.5 -46.5q-6 0 -12 3l-31 -93q36 -1 67.5 -8.5t59.5 -23t44.5 -43.5t16.5 -66q0 -67 -55 -108t-125 -41q-76 0 -192 51l24 67q97 -37 146 -37q36 0 71 19.5t35 52.5q0 26 -21.5 42.5t-46 21t-51.5 4.5q-20 0 -44.5 -2 t-28.5 -2l59 172q-56 10 -105.5 32t-99 65t-85 102t-57.5 148t-22 197z" />
<glyph unicode="&#xe8;" d="M199 537q0 85 15 164.5t48.5 154t83.5 129.5t125.5 88t167.5 33q58 0 111.5 -16.5t106.5 -58.5t92 -106t63 -166.5t24 -232.5h-741q5 -111 27 -194.5t53 -134.5t75.5 -83t89 -43.5t97.5 -11.5q163 0 342 107l41 -90q-225 -99 -387 -99q-92 0 -166.5 32t-123.5 86t-82 127 t-47.5 151.5t-14.5 163.5zM295 608h645q3 56 -8 114.5t-37 112.5t-63 96t-90 67.5t-115 25.5q-100 0 -179.5 -65t-117.5 -159.5t-35 -191.5zM369 1417l75 86l326 -266l-45 -61z" />
<glyph unicode="&#xe9;" d="M199 537q0 85 15 164.5t48.5 154t83.5 129.5t125.5 88t167.5 33q58 0 111.5 -16.5t106.5 -58.5t92 -106t63 -166.5t24 -232.5h-741q5 -111 27 -194.5t53 -134.5t75.5 -83t89 -43.5t97.5 -11.5q163 0 342 107l41 -90q-225 -99 -387 -99q-92 0 -166.5 32t-123.5 86t-82 127 t-47.5 151.5t-14.5 163.5zM295 608h645q3 56 -8 114.5t-37 112.5t-63 96t-90 67.5t-115 25.5q-100 0 -179.5 -65t-117.5 -159.5t-35 -191.5zM500 1237l325 266l76 -86l-356 -241z" />
<glyph unicode="&#xea;" d="M199 537q0 85 15 164.5t48.5 154t83.5 129.5t125.5 88t167.5 33q58 0 111.5 -16.5t106.5 -58.5t92 -106t63 -166.5t24 -232.5h-741q5 -111 27 -194.5t53 -134.5t75.5 -83t89 -43.5t97.5 -11.5q163 0 342 107l41 -90q-225 -99 -387 -99q-92 0 -166.5 32t-123.5 86t-82 127 t-47.5 151.5t-14.5 163.5zM281 1219l333 290l334 -290l-47 -52l-287 215l-286 -215zM295 608h645q3 56 -8 114.5t-37 112.5t-63 96t-90 67.5t-115 25.5q-100 0 -179.5 -65t-117.5 -159.5t-35 -191.5z" />
<glyph unicode="&#xeb;" d="M199 537q0 85 15 164.5t48.5 154t83.5 129.5t125.5 88t167.5 33q58 0 111.5 -16.5t106.5 -58.5t92 -106t63 -166.5t24 -232.5h-741q5 -111 27 -194.5t53 -134.5t75.5 -83t89 -43.5t97.5 -11.5q163 0 342 107l41 -90q-225 -99 -387 -99q-92 0 -166.5 32t-123.5 86t-82 127 t-47.5 151.5t-14.5 163.5zM295 608h645q3 56 -8 114.5t-37 112.5t-63 96t-90 67.5t-115 25.5q-100 0 -179.5 -65t-117.5 -159.5t-35 -191.5zM311 1335q0 47 34 81t81 34t81 -34t34 -81t-34 -80.5t-81 -33.5t-81 33.5t-34 80.5zM686 1335q0 47 34 81t81 34t80.5 -34t33.5 -81 t-33.5 -80.5t-80.5 -33.5t-81 33.5t-34 80.5z" />
<glyph unicode="&#xec;" d="M276 1001v82h412v-1083h-96v1001h-316zM369 1417l75 86l326 -266l-45 -61z" />
<glyph unicode="&#xed;" d="M276 1001v82h412v-1083h-96v1001h-316zM418 1237l325 266l76 -86l-356 -241z" />
<glyph unicode="&#xee;" d="M199 1219l333 290l334 -290l-47 -52l-287 215l-286 -215zM276 1001v82h412v-1083h-96v1001h-316z" />
<glyph unicode="&#xef;" d="M276 1001v82h412v-1083h-96v1001h-316zM311 1335q0 47 34 81t81 34t81 -34t34 -81t-34 -80.5t-81 -33.5t-81 33.5t-34 80.5zM686 1335q0 47 34 81t81 34t80.5 -34t33.5 -81t-33.5 -80.5t-80.5 -33.5t-81 33.5t-34 80.5z" />
<glyph unicode="&#xf0;" d="M201 543q0 122 24.5 220t64 161t94 105t111.5 59.5t119 17.5q150 0 248 -117l4 4q-76 183 -231 318l-291 -140l-61 62l282 135q-121 85 -227 111l68 41q124 -23 249 -109l224 109l59 -64l-211 -102q137 -121 220 -312t83 -428q0 -637 -416 -637q-58 0 -113 16 t-110.5 56.5t-96.5 102.5t-67 163t-26 228zM297 543q0 -70 7.5 -132.5t28.5 -129t55 -114t92 -78t134 -30.5q77 0 135.5 30.5t92.5 78.5t55.5 114.5t29 128.5t7.5 132t-7.5 132t-29 128t-55.5 113t-92.5 77.5t-135.5 30.5q-76 0 -134 -30.5t-92 -77.5t-55 -113t-28.5 -128 t-7.5 -132z" />
<glyph unicode="&#xf1;" d="M205 1096h90l39 -312h4q32 125 145.5 223.5t239.5 98.5q71 0 122 -28.5t78.5 -78t39.5 -105.5t12 -122v-772h-96v727q0 37 -0.5 57t-3.5 56t-9 57t-18.5 48.5t-30 42.5t-44.5 25.5t-62 10.5q-49 0 -98 -19t-98 -63.5t-86.5 -109t-61 -164.5t-23.5 -222v-446h-96v543 q0 339 -43 553zM217 1247q86 193 227 193q16 0 32 -3t28 -6.5t28.5 -12t25 -13t27 -16t25.5 -15.5q3 -2 18.5 -11.5t21.5 -13t21 -12t24 -12.5t22 -9t24 -7t21 -2q89 0 133 110l76 -31q-28 -68 -83 -113.5t-124 -45.5q-46 0 -83 16t-89 49q-35 24 -51 33.5t-46.5 21 t-58.5 11.5q-84 0 -145 -137z" />
<glyph unicode="&#xf2;" d="M201 543q0 122 24.5 220t64 161t94 105t111.5 59.5t119 17.5q58 0 113 -15.5t111 -56t97.5 -102t68 -162t26.5 -227.5t-26 -227.5t-67.5 -162.5t-97.5 -103t-111.5 -57t-113.5 -16t-113 16t-110.5 56.5t-96.5 102.5t-67 163t-26 228zM297 543q0 -70 7.5 -132.5t28.5 -129 t55 -114t92 -78t134 -30.5q77 0 135.5 30.5t92.5 78.5t55.5 114.5t29 128.5t7.5 132t-7.5 132t-29 128t-55.5 113t-92.5 77.5t-135.5 30.5q-76 0 -134 -30.5t-92 -77.5t-55 -113t-28.5 -128t-7.5 -132zM369 1417l75 86l326 -266l-45 -61z" />
<glyph unicode="&#xf3;" d="M201 543q0 122 24.5 220t64 161t94 105t111.5 59.5t119 17.5q58 0 113 -15.5t111 -56t97.5 -102t68 -162t26.5 -227.5t-26 -227.5t-67.5 -162.5t-97.5 -103t-111.5 -57t-113.5 -16t-113 16t-110.5 56.5t-96.5 102.5t-67 163t-26 228zM297 543q0 -70 7.5 -132.5t28.5 -129 t55 -114t92 -78t134 -30.5q77 0 135.5 30.5t92.5 78.5t55.5 114.5t29 128.5t7.5 132t-7.5 132t-29 128t-55.5 113t-92.5 77.5t-135.5 30.5q-76 0 -134 -30.5t-92 -77.5t-55 -113t-28.5 -128t-7.5 -132zM500 1237l325 266l76 -86l-356 -241z" />
<glyph unicode="&#xf4;" d="M201 543q0 122 24.5 220t64 161t94 105t111.5 59.5t119 17.5q58 0 113 -15.5t111 -56t97.5 -102t68 -162t26.5 -227.5t-26 -227.5t-67.5 -162.5t-97.5 -103t-111.5 -57t-113.5 -16t-113 16t-110.5 56.5t-96.5 102.5t-67 163t-26 228zM281 1219l333 290l334 -290l-47 -52 l-287 215l-286 -215zM297 543q0 -70 7.5 -132.5t28.5 -129t55 -114t92 -78t134 -30.5q77 0 135.5 30.5t92.5 78.5t55.5 114.5t29 128.5t7.5 132t-7.5 132t-29 128t-55.5 113t-92.5 77.5t-135.5 30.5q-76 0 -134 -30.5t-92 -77.5t-55 -113t-28.5 -128t-7.5 -132z" />
<glyph unicode="&#xf5;" d="M201 543q0 122 24.5 220t64 161t94 105t111.5 59.5t119 17.5q58 0 113 -15.5t111 -56t97.5 -102t68 -162t26.5 -227.5t-26 -227.5t-67.5 -162.5t-97.5 -103t-111.5 -57t-113.5 -16t-113 16t-110.5 56.5t-96.5 102.5t-67 163t-26 228zM238 1247q86 193 227 193q16 0 32 -3 t28 -6.5t28.5 -12t25 -13t27 -16t25.5 -15.5q2 -1 21.5 -13l26 -16t24 -13.5t28 -13.5t25 -7.5t26.5 -3.5q89 0 133 110l76 -31q-28 -68 -83 -113.5t-124 -45.5q-46 0 -83 16t-89 49q-37 25 -51 34t-45 20.5t-59 11.5q-85 0 -146 -137zM297 543q0 -70 7.5 -132.5t28.5 -129 t55 -114t92 -78t134 -30.5q77 0 135.5 30.5t92.5 78.5t55.5 114.5t29 128.5t7.5 132t-7.5 132t-29 128t-55.5 113t-92.5 77.5t-135.5 30.5q-76 0 -134 -30.5t-92 -77.5t-55 -113t-28.5 -128t-7.5 -132z" />
<glyph unicode="&#xf6;" d="M201 543q0 122 24.5 220t64 161t94 105t111.5 59.5t119 17.5q58 0 113 -15.5t111 -56t97.5 -102t68 -162t26.5 -227.5t-26 -227.5t-67.5 -162.5t-97.5 -103t-111.5 -57t-113.5 -16t-113 16t-110.5 56.5t-96.5 102.5t-67 163t-26 228zM297 543q0 -70 7.5 -132.5t28.5 -129 t55 -114t92 -78t134 -30.5q77 0 135.5 30.5t92.5 78.5t55.5 114.5t29 128.5t7.5 132t-7.5 132t-29 128t-55.5 113t-92.5 77.5t-135.5 30.5q-76 0 -134 -30.5t-92 -77.5t-55 -113t-28.5 -128t-7.5 -132zM311 1335q0 47 34 81t81 34t81 -34t34 -81t-34 -80.5t-81 -33.5 t-81 33.5t-34 80.5zM686 1335q0 47 34 81t81 34t80.5 -34t33.5 -81t-33.5 -80.5t-80.5 -33.5t-81 33.5t-34 80.5z" />
<glyph unicode="&#xf7;" d="M70 692v90h1089v-90h-1089zM526 420q0 37 25.5 62.5t62.5 25.5t62.5 -25.5t25.5 -62.5t-25.5 -62.5t-62.5 -25.5t-62.5 25.5t-25.5 62.5zM526 1055q0 37 25.5 62.5t62.5 25.5t62.5 -25.5t25.5 -62.5t-25.5 -62.5t-62.5 -25.5t-62.5 25.5t-25.5 62.5z" />
<glyph unicode="&#xf8;" d="M201 543q0 152 36 265t97 176t131.5 92.5t150.5 29.5q131 0 236 -82l72 123l63 -45l-80 -131q123 -146 123 -428q0 -123 -24.5 -222t-64.5 -162t-94.5 -105t-111.5 -59.5t-119 -17.5q-136 0 -249 93l-74 -127l-64 45l84 137q-112 145 -112 418zM297 543q0 -208 68 -334 l444 743q-75 72 -193 72q-77 0 -135 -30.5t-92.5 -77.5t-55.5 -113t-28.5 -128t-7.5 -132zM412 141q73 -82 204 -82q76 0 134 30.5t92 78t55.5 114t29 129t7.5 132.5q0 222 -74 348z" />
<glyph unicode="&#xf9;" d="M256 319v764h96v-718q0 -155 40.5 -230.5t127.5 -75.5q63 0 125.5 35t117.5 103t89.5 184.5t34.5 263.5v438h96v-534q0 -340 43 -549h-90l-41 307h-4q-32 -126 -145.5 -228t-237.5 -102q-71 0 -122 29.5t-78.5 80.5t-39.5 108.5t-12 123.5zM348 1417l76 86l326 -266 l-45 -61z" />
<glyph unicode="&#xfa;" d="M256 319v764h96v-718q0 -155 40.5 -230.5t127.5 -75.5q63 0 125.5 35t117.5 103t89.5 184.5t34.5 263.5v438h96v-534q0 -340 43 -549h-90l-41 307h-4q-32 -126 -145.5 -228t-237.5 -102q-71 0 -122 29.5t-78.5 80.5t-39.5 108.5t-12 123.5zM489 1237l326 266l76 -86 l-356 -241z" />
<glyph unicode="&#xfb;" d="M256 319v764h96v-718q0 -155 40.5 -230.5t127.5 -75.5q63 0 125.5 35t117.5 103t89.5 184.5t34.5 263.5v438h96v-534q0 -340 43 -549h-90l-41 307h-4q-32 -126 -145.5 -228t-237.5 -102q-71 0 -122 29.5t-78.5 80.5t-39.5 108.5t-12 123.5zM281 1219l333 290l334 -290 l-47 -52l-287 215l-286 -215z" />
<glyph unicode="&#xfc;" d="M256 319v764h96v-718q0 -155 40.5 -230.5t127.5 -75.5q63 0 125.5 35t117.5 103t89.5 184.5t34.5 263.5v438h96v-534q0 -340 43 -549h-90l-41 307h-4q-32 -126 -145.5 -228t-237.5 -102q-71 0 -122 29.5t-78.5 80.5t-39.5 108.5t-12 123.5zM311 1335q0 47 34 81t81 34 t81 -34t34 -81t-34 -80.5t-81 -33.5t-81 33.5t-34 80.5zM686 1335q0 47 34 81t81 34t80.5 -34t33.5 -81t-33.5 -80.5t-80.5 -33.5t-81 33.5t-34 80.5z" />
<glyph unicode="&#xfd;" d="M53 -139l82 43q61 -168 168 -168q30 0 57 14.5t45.5 32t38.5 50.5t29 52t25 54l82 186l-353 958h107l293 -831l311 831h111l-406 -1030q-65 -168 -113 -243q-98 -156 -227 -156q-88 0 -154 59t-96 148zM489 1237l326 266l76 -86l-356 -241z" />
<glyph unicode="&#xfe;" d="M258 -434v1954h96v-568h4q62 81 120.5 117.5t148.5 36.5q57 0 113 -18t112.5 -61t99 -106.5t69 -163t26.5 -222.5q0 -124 -30.5 -224t-77 -160.5t-105.5 -101.5t-112 -56.5t-101 -15.5q-150 0 -267 93v-504h-96zM354 166q123 -107 242 -107q41 0 84.5 11.5t93 45 t87.5 84.5t63.5 139.5t25.5 201.5q0 108 -22 194.5t-56.5 139t-79 87.5t-86 48.5t-81.5 13.5q-99 0 -162 -58t-109 -159v-641z" />
<glyph unicode="&#xff;" d="M53 -139l82 43q61 -168 168 -168q30 0 57 14.5t45.5 32t38.5 50.5t29 52t25 54l82 186l-353 958h107l293 -831l311 831h111l-406 -1030q-65 -168 -113 -243q-98 -156 -227 -156q-88 0 -154 59t-96 148zM332 1335q0 47 33.5 81t80.5 34t81 -34t34 -81t-34 -80.5t-81 -33.5 t-80.5 33.5t-33.5 80.5zM707 1335q0 47 33.5 81t80.5 34t81 -34t34 -81t-34 -80.5t-81 -33.5t-80.5 33.5t-33.5 80.5z" />
<glyph unicode="&#x152;" d="M74 748q0 178 23.5 312t62.5 217.5t97.5 135t122 71t142.5 19.5q68 0 150 -28h522v-82h-426v-588h297v-82h-297v-641h442v-82h-538q-78 -29 -160 -29q-69 0 -126.5 17t-99.5 44.5t-75 71.5t-55 88t-38 105t-24.5 111t-13 117.5t-5.5 113.5t-1 109zM176 742q0 -75 1 -118 t7 -125t18 -133.5t37 -117.5t60 -103.5t90 -64.5t125 -27q77 0 158 35v1294q-92 39 -158 39t-118.5 -23.5t-87.5 -60.5t-60 -94.5t-38.5 -112t-21.5 -127t-10 -126.5t-2 -123v-12z" />
<glyph unicode="&#x153;" d="M102 543q0 140 31 251.5t82 178t111 101t123 34.5q84 0 174 -70q71 68 182 68q21 0 40.5 -2t54.5 -14.5t63 -34t60 -64.5t53.5 -102t35.5 -151.5t12 -207.5h-471v-262q0 -109 35 -159t111 -50q49 0 107.5 20t95.5 40t96 55l35 -80q-204 -117 -332 -117q-64 0 -108 19.5 t-87 66.5q-29 -38 -72 -62t-88 -24t-91 18.5t-92 62t-81.5 107t-57.5 161.5t-22 217zM199 543q0 -123 23 -220.5t59.5 -152.5t77.5 -83t81 -28q69 0 117 76v844q-19 45 -92 45q-40 0 -76 -14t-71.5 -49t-61 -88t-41.5 -138t-16 -192zM653 612h375q1 48 -5 99.5t-23 108.5 t-42.5 101.5t-69.5 73.5t-100 29q-69 0 -102 -47t-33 -152v-213z" />
<glyph unicode="&#x178;" d="M158 1475h108l309 -738l312 738h108l-370 -850v-625h-97v625zM270 1726q0 47 34 81t81 34t81 -34t34 -81t-34 -80.5t-81 -33.5t-81 33.5t-34 80.5zM645 1726q0 47 34 81t81 34t80.5 -34t33.5 -81t-33.5 -80.5t-80.5 -33.5t-81 33.5t-34 80.5z" />
<glyph unicode="&#x2c6;" d="M281 1219l333 290l334 -290l-47 -52l-287 215l-286 -215z" />
<glyph unicode="&#x2dc;" d="M238 1247q86 193 227 193q16 0 32 -3t28 -6.5t28.5 -12t25 -13t27 -16t25.5 -15.5q2 -1 21.5 -13l26 -16t24 -13.5t28 -13.5t25 -7.5t26.5 -3.5q89 0 133 110l76 -31q-28 -68 -83 -113.5t-124 -45.5q-46 0 -83 16t-89 49q-37 25 -51 34t-45 20.5t-59 11.5 q-85 0 -146 -137z" />
<glyph unicode="&#x2000;" horiz-adv-x="950" />
<glyph unicode="&#x2001;" horiz-adv-x="1901" />
<glyph unicode="&#x2002;" horiz-adv-x="950" />
<glyph unicode="&#x2003;" horiz-adv-x="1901" />
<glyph unicode="&#x2004;" horiz-adv-x="633" />
<glyph unicode="&#x2005;" horiz-adv-x="475" />
<glyph unicode="&#x2006;" horiz-adv-x="316" />
<glyph unicode="&#x2007;" horiz-adv-x="316" />
<glyph unicode="&#x2008;" horiz-adv-x="237" />
<glyph unicode="&#x2009;" horiz-adv-x="380" />
<glyph unicode="&#x200a;" horiz-adv-x="105" />
<glyph unicode="&#x2010;" d="M373 694v82h483v-82h-483z" />
<glyph unicode="&#x2011;" d="M373 694v82h483v-82h-483z" />
<glyph unicode="&#x2012;" d="M373 694v82h483v-82h-483z" />
<glyph unicode="&#x2013;" d="M254 694v82h721v-82h-721z" />
<glyph unicode="&#x2014;" d="M0 694v82h1229v-82h-1229z" />
<glyph unicode="&#x2018;" d="M498 1210q0 103 83 182.5t191 110.5v-86q-53 -15 -97 -46t-63 -75q5 1 18.5 4t20.5 3q57 0 91 -35t34 -92q0 -58 -39.5 -96t-95.5 -38q-64 0 -103.5 50.5t-39.5 117.5z" />
<glyph unicode="&#x2019;" d="M498 1370q0 58 39.5 95.5t95.5 37.5q64 0 103.5 -50.5t39.5 -117.5q0 -103 -83 -182.5t-191 -110.5v86q53 15 97 46t63 75q-3 0 -17.5 -3t-21.5 -3q-57 0 -91 35t-34 92z" />
<glyph unicode="&#x201a;" d="M498 104q0 58 39.5 96t95.5 38q64 0 103.5 -50.5t39.5 -117.5q0 -103 -83 -182.5t-191 -110.5v86q53 15 97 46t63 75q-9 0 -21 -4q-3 0 -9 -1.5t-9 -1.5q-57 0 -91 35t-34 92z" />
<glyph unicode="&#x201c;" d="M268 1210q0 103 83.5 182.5t191.5 110.5v-86q-53 -15 -97 -46t-63 -75q5 1 18.5 4t20.5 3q57 0 91 -35t34 -92q0 -58 -39.5 -96t-95.5 -38q-64 0 -104 50.5t-40 117.5zM725 1210q0 103 83 182.5t191 110.5v-86q-52 -15 -96 -46t-63 -75q5 1 18.5 4t20.5 3q57 0 91 -35 t34 -92q0 -58 -40 -96t-96 -38q-64 0 -103.5 50.5t-39.5 117.5z" />
<glyph unicode="&#x201d;" d="M268 1370q0 58 39.5 95.5t95.5 37.5q65 0 104.5 -50.5t39.5 -117.5q0 -103 -83.5 -182.5t-191.5 -110.5v86q53 15 97 46t63 75q-3 0 -17.5 -3t-21.5 -3q-57 0 -91 35t-34 92zM725 1370q0 58 39.5 95.5t95.5 37.5q64 0 104 -50.5t40 -117.5q0 -103 -83.5 -182.5 t-191.5 -110.5v86q53 15 97 46t63 75q-3 0 -17.5 -3t-21.5 -3q-57 0 -91 35t-34 92z" />
<glyph unicode="&#x201e;" d="M268 104q0 58 39.5 96t95.5 38q65 0 104.5 -50.5t39.5 -117.5q0 -103 -83.5 -182.5t-191.5 -110.5v86q53 15 97 46t63 75q-8 0 -20 -4q-3 0 -9.5 -1.5t-9.5 -1.5q-57 0 -91 35t-34 92zM725 104q0 58 39.5 96t95.5 38q64 0 104 -50.5t40 -117.5q0 -103 -83.5 -182.5 t-191.5 -110.5v86q53 15 97 46t63 75q-9 0 -21 -4q-3 0 -9 -1.5t-9 -1.5q-57 0 -91 35t-34 92z" />
<glyph unicode="&#x2022;" d="M362 516q0 103 74.5 177.5t177.5 74.5t177.5 -74.5t74.5 -177.5q0 -105 -74.5 -178.5t-177.5 -73.5q-106 0 -179 73t-73 179z" />
<glyph unicode="&#x2026;" d="M78 98q0 53 37.5 91t89.5 38q53 0 91 -38.5t38 -90.5t-38 -89.5t-91 -37.5t-90 37.5t-37 89.5zM485 98q0 53 37.5 91t89.5 38t90.5 -38.5t38.5 -90.5t-38 -89.5t-91 -37.5q-52 0 -89.5 37.5t-37.5 89.5zM893 98q0 53 37.5 91t89.5 38t90.5 -38.5t38.5 -90.5t-38 -89.5 t-91 -37.5q-52 0 -89.5 37.5t-37.5 89.5z" />
<glyph unicode="&#x202f;" horiz-adv-x="380" />
<glyph unicode="&#x2039;" d="M274 729l531 510l59 -61l-469 -449l469 -448l-59 -66z" />
<glyph unicode="&#x203a;" d="M365 281l469 448l-469 449l59 61l530 -510l-530 -514z" />
<glyph unicode="&#x205f;" horiz-adv-x="475" />
<glyph unicode="&#x20ac;" d="M123 588l12 84h109v131h-121l12 84h115q4 56 11.5 108.5t23 116t37.5 117t57.5 105t79.5 87.5t106 58t135 22q144 0 236.5 -83t99.5 -224h-90q0 35 -15.5 73t-44 72t-77.5 56t-109 22q-77 0 -138 -33.5t-99 -85.5t-65 -124.5t-39 -141.5t-17 -145h453l-13 -84h-444v-131 h428l-12 -84h-412q26 -531 352 -531q123 0 198 80.5t75 179.5v9h88q0 -31 -7.5 -70t-32 -90.5t-62 -92.5t-104.5 -69.5t-153 -28.5q-408 0 -448 613h-125z" />
<glyph unicode="&#x2122;" d="M20 1421v82h469v-82h-192v-495h-82v495h-195zM559 926v577h139l166 -407l172 407h135v-577h-81v495h-5l-196 -495h-53l-191 495h-4v-495h-82z" />
<glyph unicode="&#xe000;" horiz-adv-x="1085" d="M0 0v1085h1085v-1085h-1085z" />
<glyph unicode="&#xfb01;" d="M86 1001v82h205v72q0 86 27 154.5t72.5 109.5t100.5 62.5t115 21.5q22 0 45.5 -2.5t41.5 -5.5t44.5 -11t40 -12t44 -15.5t39.5 -15t43 -17.5t40 -17v-111q-14 7 -74.5 39t-88.5 44.5t-77 27t-90 14.5q-113 0 -170 -66t-57 -188v-84h578v-1083h-97v1001h-481v-1001h-96 v1001h-205z" />
<glyph unicode="&#xfb02;" d="M84 1004v81h205v72q0 168 94 258.5t221 87.5q82 -3 160 -27.5t231 -89.5v-1386h-96v1323q-8 4 -44.5 21.5t-49.5 23.5t-45 19.5t-51.5 19t-46 11t-50.5 5.5q-113 3 -170 -65t-57 -191v-84h303v-79h-303v-1004h-96v1004h-205z" />
</font>
</defs>
</svg>
